# Blender v2.79 (sub 0) OBJ File: ''
# www.blender.org
mtllib cajitaobj.mtl
o Cube_Cube.001
v 0.440606 -0.253145 -0.701273
v 0.032762 -0.865083 -0.023633
v -0.804599 -0.318531 -0.034047
v -0.396754 0.293407 -0.711687
v 0.396754 -0.293407 0.711687
v -0.440606 0.253145 0.701273
v 0.804599 0.318531 0.034047
v -0.032762 0.865083 0.023633
vn -0.3640 -0.5717 -0.7353
vn -0.4078 -0.6119 0.6776
vn 0.3640 0.5717 0.7353
vn 0.4078 0.6119 -0.6776
vn -0.8374 0.5466 -0.0104
vn 0.8374 -0.5466 0.0104
usemtl None
s 1
f 1//1 2//1 3//1 4//1
f 2//2 5//2 6//2 3//2
f 5//3 7//3 8//3 6//3
f 7//4 1//4 4//4 8//4
f 4//5 3//5 6//5 8//5
f 7//6 5//6 2//6 1//6
