# Blender v2.79 (sub 0) OBJ File: 'manzana.blend'
# www.blender.org
mtllib manzana.mtl
o Sphere
v 0.000000 1.673177 0.505354
v 0.000000 1.555362 0.707107
v 0.000000 1.230939 0.923880
v 0.000000 0.848255 1.000000
v 0.000000 0.465572 0.923880
v 0.000000 0.141148 0.707107
v 0.000000 -0.075624 0.382683
v 0.000000 -0.119710 0.000000
v -0.193391 1.673177 0.466886
v -0.270598 1.555362 0.653281
v -0.353553 1.230939 0.853553
v -0.382683 0.848255 0.923880
v -0.353553 0.465572 0.853553
v -0.270598 0.141148 0.653281
v -0.146447 -0.075624 0.353553
v -0.357339 1.673177 0.357339
v -0.500000 1.555362 0.500000
v -0.653281 1.230939 0.653281
v -0.707107 0.848255 0.707107
v -0.653281 0.465572 0.653281
v -0.500000 0.141148 0.500000
v -0.270598 -0.075624 0.270598
v -0.466886 1.673177 0.193391
v -0.653281 1.555362 0.270598
v -0.853553 1.230939 0.353553
v -0.923879 0.848255 0.382683
v -0.853553 0.465572 0.353553
v -0.653281 0.141148 0.270598
v -0.353553 -0.075624 0.146447
v -0.505354 1.673177 0.000000
v -0.707107 1.555362 0.000000
v -0.923879 1.230939 0.000000
v -1.000000 0.848255 0.000000
v -0.923879 0.465572 0.000000
v -0.707107 0.141148 0.000000
v -0.382683 -0.075624 0.000000
v -0.466886 1.673177 -0.193390
v -0.653281 1.555362 -0.270598
v -0.853553 1.230939 -0.353553
v -0.923879 0.848255 -0.382683
v -0.853553 0.465572 -0.353553
v -0.653281 0.141148 -0.270598
v -0.353553 -0.075624 -0.146446
v -0.357339 1.673177 -0.357339
v -0.500000 1.555362 -0.500000
v -0.653281 1.230939 -0.653281
v -0.707106 0.848255 -0.707107
v -0.653281 0.465572 -0.653281
v -0.500000 0.141148 -0.500000
v -0.270598 -0.075624 -0.270598
v -0.193390 1.673177 -0.466886
v -0.270598 1.555362 -0.653281
v -0.353553 1.230939 -0.853553
v -0.382683 0.848255 -0.923879
v -0.353553 0.465572 -0.853553
v -0.270598 0.141148 -0.653281
v -0.146446 -0.075624 -0.353553
v 0.000000 1.673177 -0.505354
v 0.000000 1.555362 -0.707106
v 0.000000 1.230939 -0.923879
v 0.000000 0.848255 -1.000000
v 0.000000 0.465572 -0.923879
v 0.000000 0.141148 -0.707106
v 0.000000 -0.075624 -0.382683
v 0.193391 1.673177 -0.466886
v 0.270598 1.555362 -0.653281
v 0.353554 1.230939 -0.853553
v 0.382684 0.848255 -0.923879
v 0.353554 0.465572 -0.853553
v 0.270598 0.141148 -0.653281
v 0.146447 -0.075624 -0.353553
v 0.357339 1.673177 -0.357339
v 0.500000 1.555362 -0.499999
v 0.653282 1.230939 -0.653281
v 0.707107 0.848255 -0.707106
v 0.653282 0.465572 -0.653281
v 0.500000 0.141148 -0.499999
v 0.270598 -0.075624 -0.270598
v 0.466886 1.673177 -0.193390
v 0.653281 1.555362 -0.270597
v 0.853553 1.230939 -0.353553
v 0.923879 0.848255 -0.382683
v 0.853553 0.465572 -0.353553
v 0.653281 0.141148 -0.270597
v 0.353553 -0.075624 -0.146446
v 0.505354 1.673177 0.000000
v 0.707106 1.555362 0.000000
v 0.923879 1.230939 0.000001
v 1.000000 0.848255 0.000001
v 0.923879 0.465572 0.000001
v 0.707106 0.141148 0.000000
v 0.382683 -0.075624 0.000000
v 0.466886 1.673177 0.193391
v 0.653281 1.555362 0.270598
v 0.853553 1.230939 0.353554
v 0.923879 0.848255 0.382684
v 0.853553 0.465572 0.353554
v 0.653281 0.141148 0.270598
v 0.353553 -0.075624 0.146447
v 0.357339 1.673177 0.357339
v 0.499999 1.555362 0.500000
v 0.653281 1.230939 0.653282
v 0.707106 0.848255 0.707107
v 0.653281 0.465572 0.653282
v 0.499999 0.141148 0.500000
v 0.270598 -0.075624 0.270598
v 0.193390 1.673177 0.466886
v 0.270598 1.555362 0.653281
v 0.353553 1.230939 0.853553
v 0.382683 0.848255 0.923880
v 0.353553 0.465572 0.853553
v 0.270598 0.141148 0.653281
v 0.146446 -0.075624 0.353553
v -0.000000 1.568022 0.285449
v -0.000000 1.281381 0.069641
v -0.109237 1.568022 0.263720
v -0.201843 1.568022 0.201843
v -0.263720 1.568022 0.109237
v -0.285449 1.568022 0.000000
v -0.263720 1.568022 -0.109236
v -0.201843 1.568022 -0.201843
v -0.109236 1.568022 -0.263720
v 0.000000 1.568022 -0.285449
v 0.109237 1.568022 -0.263720
v 0.201843 1.568022 -0.201843
v 0.263720 1.568022 -0.109236
v 0.285449 1.568022 0.000000
v 0.263720 1.568022 0.109237
v 0.201843 1.568022 0.201843
v 0.109236 1.568022 0.263720
v -0.000000 1.419339 0.151279
v -0.000000 1.604566 0.069641
v -0.057892 1.419339 0.139763
v -0.106970 1.419339 0.106970
v -0.139763 1.419339 0.057892
v -0.151279 1.419339 0.000000
v -0.139763 1.419339 -0.057892
v -0.106970 1.419339 -0.106970
v -0.057892 1.419339 -0.139763
v 0.000000 1.419339 -0.151278
v 0.057892 1.419339 -0.139763
v 0.106970 1.419339 -0.106970
v 0.139763 1.419339 -0.057892
v 0.151279 1.419339 0.000000
v 0.139763 1.419339 0.057892
v 0.106970 1.419339 0.106970
v 0.057892 1.419339 0.139763
v -0.026650 1.281381 0.064340
v -0.049244 1.281381 0.049244
v -0.064340 1.281381 0.026651
v -0.069641 1.281381 0.000000
v -0.064340 1.281381 -0.026650
v -0.049244 1.281381 -0.049243
v -0.026650 1.281381 -0.064340
v 0.000000 1.281381 -0.069641
v 0.026650 1.281381 -0.064340
v 0.049244 1.281381 -0.049243
v 0.064340 1.281381 -0.026650
v 0.069641 1.281381 0.000000
v 0.064340 1.281381 0.026651
v 0.049244 1.281381 0.049244
v 0.026650 1.281381 0.064340
v 0.000094 1.853944 0.078478
v -0.026650 1.604566 0.064340
v -0.049244 1.604566 0.049244
v -0.064340 1.604566 0.026651
v -0.069641 1.604566 0.000000
v -0.064340 1.604566 -0.026650
v -0.049244 1.604566 -0.049243
v -0.026650 1.604566 -0.064340
v 0.000000 1.604566 -0.069641
v 0.026650 1.604566 -0.064340
v 0.049244 1.604566 -0.049243
v 0.064340 1.604566 -0.026650
v 0.069641 1.604566 0.000000
v 0.064340 1.604566 0.026651
v 0.049244 1.604566 0.049244
v 0.026650 1.604566 0.064340
v -0.000000 1.604566 0.069641
v -0.026650 1.604566 0.064340
v -0.049244 1.604566 0.049244
v -0.064340 1.604566 0.026651
v -0.069641 1.604566 0.000000
v -0.064340 1.604566 -0.026650
v -0.049244 1.604566 -0.049243
v -0.026650 1.604566 -0.064340
v 0.000000 1.604566 -0.069641
v 0.026650 1.604566 -0.064340
v 0.049244 1.604566 -0.049243
v 0.064340 1.604566 -0.026650
v 0.069641 1.604566 0.000000
v 0.064340 1.604566 0.026651
v 0.049244 1.604566 0.049244
v 0.026650 1.604566 0.064340
v -0.029779 1.850859 0.072504
v -0.055105 1.848244 0.055493
v -0.072027 1.846497 0.030032
v -0.077969 1.845883 0.000000
v -0.072027 1.846497 -0.030032
v -0.055105 1.848244 -0.055492
v -0.029779 1.850859 -0.072504
v 0.000094 1.853944 -0.078478
v 0.029968 1.857028 -0.072504
v 0.055293 1.859643 -0.055492
v 0.072215 1.861391 -0.030032
v 0.078157 1.862004 0.000000
v 0.072215 1.861391 0.030032
v 0.055293 1.859643 0.055493
v 0.029968 1.857028 0.072504
v 0.000094 1.853944 0.078478
v -0.036151 2.207215 0.103101
v -0.029779 1.850859 0.072504
v -0.055105 1.848244 0.055493
v -0.072027 1.846497 0.030032
v -0.077969 1.845883 0.000000
v -0.072027 1.846497 -0.030032
v -0.055105 1.848244 -0.055492
v -0.029779 1.850859 -0.072504
v 0.000094 1.853944 -0.078478
v 0.029968 1.857028 -0.072504
v 0.055293 1.859643 -0.055492
v 0.072215 1.861391 -0.030032
v 0.078157 1.862004 0.000000
v 0.072215 1.861391 0.030032
v 0.055293 1.859643 0.055493
v 0.029968 1.857028 0.072504
v -0.017153 2.020981 0.078478
v -0.047027 2.017897 0.072504
v -0.072352 2.015282 0.055493
v -0.089274 2.013535 0.030032
v -0.095216 2.012921 0.000000
v -0.089274 2.013535 -0.030032
v -0.072352 2.015282 -0.055492
v -0.047027 2.017897 -0.072504
v -0.017153 2.020981 -0.078478
v 0.012720 2.024066 -0.072504
v 0.038046 2.026681 -0.055492
v 0.054968 2.028428 -0.030032
v 0.060910 2.029042 0.000000
v 0.054968 2.028428 0.030032
v 0.038046 2.026681 0.055493
v 0.012720 2.024066 0.072504
v -0.042114 2.226837 0.000000
v -0.073902 2.195743 0.095253
v -0.105905 2.186018 0.072904
v -0.127289 2.179520 0.039455
v -0.134798 2.177238 0.000000
v -0.127289 2.179520 -0.039455
v -0.105905 2.186018 -0.072903
v -0.073902 2.195743 -0.095253
v -0.036151 2.207215 -0.103101
v 0.001600 2.218687 -0.095253
v 0.033603 2.228412 -0.072903
v 0.054987 2.234910 -0.039455
v 0.062496 2.237192 0.000000
v 0.054987 2.234910 0.039455
v 0.033603 2.228412 0.072904
v 0.001600 2.218687 0.095253
v 0.903357 2.328125 0.304144
v -0.018841 1.920152 0.007929
v 0.673956 2.010976 0.222618
v 0.523170 2.375597 0.189867
v 0.365254 1.874409 0.123461
v 0.214468 2.239030 0.090710
vn 0.2917 0.0348 -0.9559
vn -0.0558 0.9893 -0.1349
vn -0.1032 0.9893 -0.1032
vn -0.9146 0.0000 0.4042
vn -0.9701 0.0000 0.2426
vn 0.1032 0.9893 0.1032
vn 0.1349 0.9893 0.0558
vn 0.5502 0.0000 0.8350
vn 0.3789 0.0000 0.9254
vn -0.1349 0.9893 -0.0558
vn -0.8233 0.0000 0.5676
vn 0.1460 0.9893 0.0000
vn 0.7002 0.0000 0.7139
vn -0.1460 0.9893 0.0000
vn -0.7002 0.0000 0.7139
vn 0.1349 0.9893 -0.0558
vn 0.8233 0.0000 0.5676
vn -0.1349 0.9893 0.0558
vn -0.5502 0.0000 0.8350
vn 0.1032 0.9893 -0.1032
vn 0.9146 0.0000 0.4042
vn -0.1032 0.9893 0.1032
vn -0.3789 0.0000 0.9254
vn 0.0558 0.9893 -0.1349
vn 0.9701 0.0000 0.2426
vn -0.0558 0.9893 0.1349
vn -0.1932 0.0000 0.9811
vn 0.0000 0.9893 -0.1460
vn 0.0000 0.0000 1.0000
vn 0.0000 0.9893 0.1460
vn 0.0558 0.9893 0.1349
vn 0.1932 0.0000 0.9811
vn -0.7013 -0.0242 0.7124
vn -0.8244 -0.0309 0.5651
vn 0.8241 -0.0298 0.5657
vn 0.7013 -0.0233 0.7124
vn -0.5512 -0.0207 0.8341
vn 0.9151 -0.0440 0.4008
vn -0.3797 -0.0188 0.9249
vn 0.9683 -0.0877 0.2337
vn -0.1932 -0.0179 0.9810
vn 0.0467 -0.9116 0.4083
vn 0.1948 -0.0176 0.9807
vn 0.0009 -0.0175 0.9998
vn -0.9684 -0.0898 0.2324
vn 0.3808 -0.0183 0.9244
vn -0.9155 -0.0454 0.3997
vn 0.5518 -0.0200 0.8337
vn 0.9592 -0.0844 0.2699
vn 0.9048 -0.0431 0.4237
vn -0.1870 -0.0179 0.9822
vn -0.3755 -0.0188 0.9266
vn 0.3232 -0.7741 0.5443
vn 0.1992 -0.0175 0.9798
vn 0.0073 -0.0175 0.9998
vn -0.9670 -0.0924 0.2374
vn 0.3815 -0.0182 0.9242
vn -0.9174 -0.0460 0.3953
vn 0.5481 -0.0198 0.8361
vn -0.8271 -0.0311 0.5611
vn 0.6938 -0.0230 0.7198
vn -0.7028 -0.0243 0.7109
vn 0.8141 -0.0294 0.5799
vn -0.5500 -0.0207 0.8349
vn 0.3769 0.0389 0.9254
vn 0.1922 0.0198 0.9811
vn -0.9098 -0.0939 0.4042
vn -0.9650 -0.0996 0.2426
vn 0.5473 0.0565 0.8350
vn -0.8189 -0.0845 0.5676
vn 0.6965 0.0719 0.7139
vn -0.6965 -0.0719 0.7139
vn 0.8189 0.0845 0.5676
vn -0.5473 -0.0565 0.8350
vn 0.9098 0.0939 0.4042
vn -0.3769 -0.0389 0.9254
vn 0.9650 0.0996 0.2426
vn -0.1922 -0.0198 0.9811
vn -0.9855 -0.1693 0.0000
vn -0.9097 -0.1617 -0.3825
vn 0.9249 0.0383 -0.3782
vn 0.9989 0.0469 0.0000
vn -0.9097 -0.1617 0.3825
vn 0.7132 0.0138 -0.7008
vn -0.6932 -0.1397 0.7070
vn 0.3937 -0.0225 -0.9189
vn -0.3687 -0.1058 0.9235
vn 0.0136 -0.0647 -0.9978
vn 0.3937 -0.0225 0.9189
vn 0.0136 -0.0647 0.9978
vn -0.3687 -0.1058 -0.9235
vn 0.7132 0.0138 0.7008
vn -0.6932 -0.1397 -0.7070
vn 0.9249 0.0383 0.3782
vn 0.1692 0.5907 -0.7889
vn 0.4474 0.6517 -0.6124
vn -0.4575 0.4592 0.7614
vn -0.7099 0.4090 0.5734
vn -0.1494 0.5227 -0.8393
vn 0.1692 0.5907 0.7889
vn -0.1494 0.5227 0.8393
vn -0.4575 0.4592 -0.7614
vn 0.4474 0.6517 0.6124
vn -0.7099 0.4090 -0.5734
vn 0.6373 0.6942 0.3345
vn -0.8737 0.3774 -0.3068
vn 0.7048 0.7094 0.0000
vn -0.9303 0.3667 0.0000
vn 0.6373 0.6942 -0.3345
vn -0.8737 0.3774 0.3068
vn -0.2907 0.9568 0.0000
vn 0.0000 0.3743 0.9273
vn 0.0000 0.7144 0.6997
vn -0.2677 0.7144 0.6464
vn -0.3548 0.3743 0.8567
vn -0.0701 0.9951 -0.0701
vn -0.0916 0.9951 -0.0380
vn 0.5379 0.8130 0.2228
vn 0.4117 0.8130 0.4117
vn 0.0000 -1.0000 0.0000
vn 0.0000 -0.9290 0.3700
vn -0.1416 -0.9290 0.3418
vn 0.0000 -0.6952 0.7188
vn 0.0000 -0.3743 0.9273
vn -0.3548 -0.3743 0.8567
vn -0.2751 -0.6952 0.6641
vn -0.3827 0.0000 0.9239
vn 0.0000 0.9951 0.0992
vn -0.0380 0.9951 0.0916
vn -0.6557 -0.3743 0.6557
vn -0.5083 -0.6952 0.5083
vn -0.6557 0.3743 0.6557
vn -0.7071 0.0000 0.7071
vn -0.0701 0.9951 0.0701
vn -0.4947 0.7144 0.4947
vn -0.2616 -0.9290 0.2616
vn 0.0380 0.9951 0.0916
vn 0.0701 0.9951 0.0701
vn -0.4117 0.8130 -0.4117
vn -0.2228 0.8130 -0.5379
vn -0.6641 -0.6952 0.2751
vn -0.3418 -0.9290 0.1416
vn -0.9239 0.0000 0.3827
vn -0.8567 -0.3743 0.3548
vn -0.6464 0.7144 0.2677
vn -0.8567 0.3743 0.3548
vn 0.0701 0.9951 -0.0701
vn 0.0380 0.9951 -0.0916
vn -0.2228 0.8130 0.5379
vn -0.4117 0.8130 0.4117
vn -0.0916 0.9951 0.0380
vn -1.0000 0.0000 0.0000
vn -0.9273 -0.3743 0.0000
vn -0.6997 0.7144 0.0000
vn -0.9273 0.3743 0.0000
vn 0.0000 0.9951 -0.0992
vn 0.0000 0.8130 0.5823
vn -0.3700 -0.9290 0.0000
vn -0.7188 -0.6952 0.0000
vn -0.0992 0.9951 0.0000
vn -0.3418 -0.9290 -0.1416
vn -0.8567 -0.3743 -0.3548
vn -0.6641 -0.6952 -0.2751
vn -0.8567 0.3743 -0.3548
vn -0.9239 0.0000 -0.3827
vn -0.6464 0.7144 -0.2677
vn 0.5823 0.8130 0.0000
vn -0.6557 0.3743 -0.6557
vn -0.7071 0.0000 -0.7071
vn -0.4947 0.7144 -0.4947
vn -0.5083 -0.6952 -0.5083
vn -0.2616 -0.9290 -0.2616
vn -0.6557 -0.3743 -0.6557
vn 0.5379 0.8130 -0.2228
vn -0.2751 -0.6952 -0.6641
vn -0.1416 -0.9290 -0.3418
vn -0.3827 0.0000 -0.9239
vn -0.3548 -0.3743 -0.8567
vn -0.2677 0.7144 -0.6464
vn -0.3548 0.3743 -0.8567
vn 0.0916 0.9951 0.0380
vn 0.0992 0.9951 0.0000
vn -0.5823 0.8130 0.0000
vn -0.5379 0.8130 -0.2228
vn -0.0380 0.9951 -0.0916
vn 0.0000 0.7144 -0.6997
vn 0.0000 0.3743 -0.9273
vn 0.0000 -0.9290 -0.3700
vn 0.0000 -0.3743 -0.9273
vn 0.0000 -0.6952 -0.7188
vn 0.0000 0.0000 -1.0000
vn 0.1416 -0.9290 -0.3418
vn 0.3548 -0.3743 -0.8567
vn 0.2751 -0.6952 -0.6641
vn 0.3548 0.3743 -0.8567
vn 0.3827 0.0000 -0.9239
vn 0.2677 0.7144 -0.6464
vn 0.2228 0.8130 0.5379
vn 0.4947 0.7144 -0.4947
vn 0.5083 -0.6952 -0.5083
vn 0.2616 -0.9290 -0.2616
vn 0.7071 0.0000 -0.7071
vn 0.6557 -0.3743 -0.6557
vn 0.6557 0.3743 -0.6557
vn 0.2228 0.8130 -0.5379
vn 0.4117 0.8130 -0.4117
vn 0.6641 -0.6952 -0.2751
vn 0.3418 -0.9290 -0.1416
vn 0.9239 0.0000 -0.3827
vn 0.8567 -0.3743 -0.3548
vn 0.6464 0.7144 -0.2677
vn 0.8567 0.3743 -0.3548
vn 0.0000 0.8130 -0.5823
vn 0.0916 0.9951 -0.0380
vn -0.5379 0.8130 0.2228
vn 0.3700 -0.9290 0.0000
vn 0.9273 -0.3743 0.0000
vn 0.7188 -0.6952 0.0000
vn 0.9273 0.3743 0.0000
vn 1.0000 0.0000 0.0000
vn 0.6997 0.7144 0.0000
vn 0.8567 -0.3743 0.3548
vn 0.6641 -0.6952 0.2751
vn 0.8567 0.3743 0.3548
vn 0.9239 0.0000 0.3827
vn 0.6464 0.7144 0.2677
vn 0.3418 -0.9290 0.1416
vn 0.5083 -0.6952 0.5083
vn 0.2616 -0.9290 0.2616
vn 0.7071 0.0000 0.7071
vn 0.6557 -0.3743 0.6557
vn 0.4947 0.7144 0.4947
vn 0.6557 0.3743 0.6557
vn 0.3827 0.0000 0.9239
vn 0.3548 -0.3743 0.8567
vn 0.2677 0.7144 0.6464
vn 0.3548 0.3743 0.8567
vn 0.1416 -0.9290 0.3418
vn 0.2751 -0.6952 0.6641
vn -0.7401 0.5986 0.3066
vn -0.8010 0.5986 0.0000
vn 0.7401 0.5986 -0.3066
vn 0.8010 0.5986 0.0000
vn -0.5664 0.5986 0.5664
vn 0.5664 0.5986 -0.5664
vn -0.3066 0.5986 0.7401
vn 0.3066 0.5986 -0.7401
vn 0.0000 0.5986 0.8010
vn -0.3066 0.5986 -0.7401
vn 0.0000 0.5986 -0.8010
vn 0.3066 0.5986 0.7401
vn -0.5664 0.5986 -0.5664
vn 0.5664 0.5986 0.5664
vn -0.7401 0.5986 -0.3066
vn 0.7401 0.5986 0.3066
usemtl Material.001
s off
f 263//1 260//1 264//1
f 259//1 261//1 262//1
f 261//1 263//1 264//1 262//1
s 1
f 154//2 153//3 169//4 170//5
f 161//6 160//7 176//8 177//9
f 153//3 152//10 168//11 169//4
f 160//7 159//12 175//13 176//8
f 152//10 151//14 167//15 168//11
f 159//12 158//16 174//17 175//13
f 151//14 150//18 166//19 167//15
f 158//16 157//20 173//21 174//17
f 150//18 149//22 165//23 166//19
f 157//20 156//24 172//25 173//21
f 149//22 148//26 164//27 165//23
f 156//24 155//28 171//29 172//25
f 115//30 162//31 178//32 132//29
f 148//26 115//30 132//29 164//27
f 155//28 154//2 170//5 171//29
f 162//31 161//6 177//9 178//32
f 168//11 167//15 183//33 184//34
f 175//13 174//17 190//35 191//36
f 167//15 166//19 182//37 183//33
f 174//17 173//21 189//38 190//35
f 166//19 165//23 181//39 182//37
f 173//21 172//25 188//40 189//38
f 165//23 164//27 180//41 181//39
f 172//25 171//29 187//42 188//40
f 132//29 178//32 194//43 179//44
f 164//27 132//29 179//44 180//41
f 171//29 170//5 186//45 187//42
f 178//32 177//9 193//46 194//43
f 170//5 169//4 185//47 186//45
f 177//9 176//8 192//48 193//46
f 169//4 168//11 184//34 185//47
f 176//8 175//13 191//36 192//48
f 189//38 188//40 203//49 204//50
f 181//39 180//41 195//51 196//52
f 188//40 187//42 202//53 203//49
f 179//44 194//43 209//54 163//55
f 180//41 179//44 163//55 195//51
f 187//42 186//45 201//56 202//53
f 194//43 193//46 208//57 209//54
f 186//45 185//47 200//58 201//56
f 193//46 192//48 207//59 208//57
f 185//47 184//34 199//60 200//58
f 192//48 191//36 206//61 207//59
f 184//34 183//33 198//62 199//60
f 191//36 190//35 205//63 206//61
f 183//33 182//37 197//64 198//62
f 190//35 189//38 204//50 205//63
f 182//37 181//39 196//52 197//64
f 209//54 208//57 225//65 226//66
f 201//56 200//58 217//67 218//68
f 208//57 207//59 224//69 225//65
f 200//58 199//60 216//70 217//67
f 207//59 206//61 223//71 224//69
f 199//60 198//62 215//72 216//70
f 206//61 205//63 222//73 223//71
f 198//62 197//64 214//74 215//72
f 205//63 204//50 221//75 222//73
f 197//64 196//52 213//76 214//74
f 204//50 203//49 220//77 221//75
f 196//52 195//51 212//78 213//76
f 203//49 202//53 219//29 220//77
f 163//55 209//54 226//66 210//29
f 195//51 163//55 210//29 212//78
f 202//53 201//56 218//68 219//29
f 216//70 215//72 231//79 232//80
f 223//71 222//73 238//81 239//82
f 215//72 214//74 230//83 231//79
f 222//73 221//75 237//84 238//81
f 214//74 213//76 229//85 230//83
f 221//75 220//77 236//86 237//84
f 213//76 212//78 228//87 229//85
f 220//77 219//29 235//88 236//86
f 210//29 226//66 242//89 227//90
f 212//78 210//29 227//90 228//87
f 219//29 218//68 234//91 235//88
f 226//66 225//65 241//92 242//89
f 218//68 217//67 233//93 234//91
f 225//65 224//69 240//94 241//92
f 217//67 216//70 232//80 233//93
f 224//69 223//71 239//82 240//94
f 237//84 236//86 252//95 253//96
f 229//85 228//87 244//97 245//98
f 236//86 235//88 251//99 252//95
f 227//90 242//89 258//100 211//101
f 228//87 227//90 211//101 244//97
f 235//88 234//91 250//102 251//99
f 242//89 241//92 257//103 258//100
f 234//91 233//93 249//104 250//102
f 241//92 240//94 256//105 257//103
f 233//93 232//80 248//106 249//104
f 240//94 239//82 255//107 256//105
f 232//80 231//79 247//108 248//106
f 239//82 238//81 254//109 255//107
f 231//79 230//83 246//110 247//108
f 238//81 237//84 253//96 254//109
f 230//83 229//85 245//98 246//110
f 211//101 243//111 244//97
f 244//97 243//111 245//98
f 245//98 243//111 246//110
f 246//110 243//111 247//108
f 247//108 243//111 248//106
f 248//106 243//111 249//104
f 249//104 243//111 250//102
f 250//102 243//111 251//99
f 251//99 243//111 252//95
f 252//95 243//111 253//96
f 253//96 243//111 254//109
f 254//109 243//111 255//107
f 255//107 243//111 256//105
f 256//105 243//111 257//103
f 257//103 243//111 258//100
f 258//100 243//111 211//101
usemtl Material.002
f 3//112 2//113 10//114 11//115
f 44//116 37//117 120//118 121//119
f 8//120 7//121 15//122
f 6//123 5//124 13//125 14//126
f 4//29 3//112 11//115 12//127
f 2//113 1//128 9//129 10//114
f 7//121 6//123 14//126 15//122
f 5//124 4//29 12//127 13//125
f 14//126 13//125 20//130 21//131
f 12//127 11//115 18//132 19//133
f 10//114 9//129 16//134 17//135
f 15//122 14//126 21//131 22//136
f 13//125 12//127 19//133 20//130
f 11//115 10//114 17//135 18//132
f 107//137 100//138 129//139 130//140
f 8//120 15//122 22//136
f 22//136 21//131 28//141 29//142
f 20//130 19//133 26//143 27//144
f 18//132 17//135 24//145 25//146
f 72//147 65//148 124//149 125//150
f 8//120 22//136 29//142
f 21//131 20//130 27//144 28//141
f 19//133 18//132 25//146 26//143
f 17//135 16//134 23//151 24//145
f 27//144 26//143 33//152 34//153
f 25//146 24//145 31//154 32//155
f 65//148 58//156 123//157 124//149
f 8//120 29//142 36//158
f 28//141 27//144 34//153 35//159
f 26//143 25//146 32//155 33//152
f 24//145 23//151 30//160 31//154
f 29//142 28//141 35//159 36//158
f 8//120 36//158 43//161
f 35//159 34//153 41//162 42//163
f 33//152 32//155 39//164 40//165
f 31//154 30//160 37//117 38//166
f 36//158 35//159 42//163 43//161
f 34//153 33//152 40//165 41//162
f 32//155 31//154 38//166 39//164
f 37//117 30//160 119//167 120//118
f 40//165 39//164 46//168 47//169
f 38//166 37//117 44//116 45//170
f 43//161 42//163 49//171 50//172
f 41//162 40//165 47//169 48//173
f 39//164 38//166 45//170 46//168
f 30//160 23//151 118//174 119//167
f 8//120 43//161 50//172
f 42//163 41//162 48//173 49//171
f 50//172 49//171 56//175 57//176
f 48//173 47//169 54//177 55//178
f 46//168 45//170 52//179 53//180
f 93//181 86//182 127//183 128//184
f 8//120 50//172 57//176
f 49//171 48//173 55//178 56//175
f 47//169 46//168 53//180 54//177
f 45//170 44//116 51//185 52//179
f 53//180 52//179 59//186 60//187
f 100//138 93//181 128//184 129//139
f 8//120 57//176 64//188
f 56//175 55//178 62//189 63//190
f 54//177 53//180 60//187 61//191
f 52//179 51//185 58//156 59//186
f 57//176 56//175 63//190 64//188
f 55//178 54//177 61//191 62//189
f 8//120 64//188 71//192
f 63//190 62//189 69//193 70//194
f 61//191 60//187 67//195 68//196
f 59//186 58//156 65//148 66//197
f 64//188 63//190 70//194 71//192
f 62//189 61//191 68//196 69//193
f 60//187 59//186 66//197 67//195
f 58//156 51//185 122//198 123//157
f 66//197 65//148 72//147 73//199
f 71//192 70//194 77//200 78//201
f 69//193 68//196 75//202 76//203
f 67//195 66//197 73//199 74//204
f 16//134 9//129 116//205 117//206
f 8//120 71//192 78//201
f 70//194 69//193 76//203 77//200
f 68//196 67//195 74//204 75//202
f 78//201 77//200 84//207 85//208
f 76//203 75//202 82//209 83//210
f 74//204 73//199 80//211 81//212
f 1//128 107//137 130//140 114//213
f 8//120 78//201 85//208
f 77//200 76//203 83//210 84//207
f 75//202 74//204 81//212 82//209
f 73//199 72//147 79//214 80//211
f 79//214 72//147 125//150 126//215
f 8//120 85//208 92//216
f 84//207 83//210 90//217 91//218
f 82//209 81//212 88//219 89//220
f 80//211 79//214 86//182 87//221
f 85//208 84//207 91//218 92//216
f 83//210 82//209 89//220 90//217
f 81//212 80//211 87//221 88//219
f 91//218 90//217 97//222 98//223
f 89//220 88//219 95//224 96//225
f 87//221 86//182 93//181 94//226
f 92//216 91//218 98//223 99//227
f 90//217 89//220 96//225 97//222
f 88//219 87//221 94//226 95//224
f 51//185 44//116 121//119 122//198
f 8//120 92//216 99//227
f 99//227 98//223 105//228 106//229
f 97//222 96//225 103//230 104//231
f 95//224 94//226 101//232 102//233
f 23//151 16//134 117//206 118//174
f 8//120 99//227 106//229
f 98//223 97//222 104//231 105//228
f 96//225 95//224 102//233 103//230
f 94//226 93//181 100//138 101//232
f 104//231 103//230 110//234 111//235
f 102//233 101//232 108//236 109//237
f 86//182 79//214 126//215 127//183
f 8//120 106//229 113//238
f 105//228 104//231 111//235 112//239
f 103//230 102//233 109//237 110//234
f 101//232 100//138 107//137 108//236
f 106//229 105//228 112//239 113//238
f 8//120 113//238 7//121
f 112//239 111//235 5//124 6//123
f 110//234 109//237 3//112 4//29
f 108//236 107//137 1//128 2//113
f 113//238 112//239 6//123 7//121
f 111//235 110//234 4//29 5//124
f 109//237 108//236 2//113 3//112
f 9//129 1//128 114//213 116//205
f 127//183 126//215 143//240 144//241
f 119//167 118//174 135//242 136//243
f 126//215 125//150 142//244 143//240
f 118//174 117//206 134//245 135//242
f 125//150 124//149 141//246 142//244
f 117//206 116//205 133//247 134//245
f 124//149 123//157 140//248 141//246
f 114//213 130//140 147//249 131//250
f 116//205 114//213 131//250 133//247
f 123//157 122//198 139//251 140//248
f 130//140 129//139 146//252 147//249
f 122//198 121//119 138//253 139//251
f 129//139 128//184 145//254 146//252
f 121//119 120//118 137//255 138//253
f 128//184 127//183 144//241 145//254
f 120//118 119//167 136//243 137//255
f 134//245 133//247 148//26 149//22
f 141//246 140//248 155//28 156//24
f 131//250 147//249 162//31 115//30
f 133//247 131//250 115//30 148//26
f 140//248 139//251 154//2 155//28
f 147//249 146//252 161//6 162//31
f 139//251 138//253 153//3 154//2
f 146//252 145//254 160//7 161//6
f 138//253 137//255 152//10 153//3
f 145//254 144//241 159//12 160//7
f 137//255 136//243 151//14 152//10
f 144//241 143//240 158//16 159//12
f 136//243 135//242 150//18 151//14
f 143//240 142//244 157//20 158//16
f 135//242 134//245 149//22 150//18
f 142//244 141//246 156//24 157//20
