# 3ds Max Wavefront OBJ Exporter v0.97b - (c)2007 guruware
# File Created: 30.04.2018 18:33:40

mtllib nivel3.mtl

#
# object Box010
#

v  -104.6867 0.0000 9.0274
v  -104.6867 0.0000 -0.9726
v  894.2138 0.0000 -0.9726
v  894.2138 0.0000 9.0274
v  -104.6867 30.0000 9.0274
v  894.2138 30.0000 9.0274
v  894.2138 30.0000 -0.9726
v  -104.6867 30.0000 -0.9726
# 8 vertices

vn -0.5774 -0.5774 0.5774
vn -0.5774 -0.5774 -0.5774
vn 0.5774 -0.5774 -0.5774
vn 0.5774 -0.5774 0.5774
vn -0.5774 0.5774 0.5774
vn 0.5774 0.5774 0.5774
vn 0.5774 0.5774 -0.5774
vn -0.5774 0.5774 -0.5774
# 8 vertex normals

vt -1.9027 -0.0882 0.2000
vt -1.9027 0.1118 0.2000
vt -10.7027 0.1118 0.2000
vt -10.7027 -0.0882 0.2000
vt 2.9027 -0.0882 0.8000
vt 11.7027 -0.0882 0.8000
vt 11.7027 0.1118 0.8000
vt 2.9027 0.1118 0.8000
vt 2.9027 0.2000 -0.0882
vt 11.7027 0.2000 -0.0882
vt 11.7027 0.8000 -0.0882
vt 2.9027 0.8000 -0.0882
vt -0.0882 0.2000 11.7027
vt 0.1118 0.2000 11.7027
vt 0.1118 0.8000 11.7027
vt -0.0882 0.8000 11.7027
vt -10.7027 0.2000 0.1118
vt -1.9027 0.2000 0.1118
vt -1.9027 0.8000 0.1118
vt -10.7027 0.8000 0.1118
vt 0.8882 0.2000 2.9027
vt 1.0882 0.2000 2.9027
vt 1.0882 0.8000 2.9027
vt 0.8882 0.8000 2.9027
# 24 texture coords

o Box010
g Box010
usemtl 02___Default
s 2
f 1/1/1 2/2/2 3/3/3 4/4/4 
s 4
f 5/5/5 6/6/6 7/7/7 8/8/8 
s 8
f 1/9/1 4/10/4 6/11/6 5/12/5 
s 16
f 4/13/4 3/14/3 7/15/7 6/16/6 
s 32
f 3/17/3 2/18/2 8/19/8 7/20/7 
s 64
f 2/21/2 1/22/1 5/23/5 8/24/8 
# 6 polygons

#
# object Box012
#

v  -109.8005 0.0000 -90.7759
v  -99.8005 0.0000 -90.7759
v  -99.8005 0.0000 -0.7759
v  -109.8005 0.0000 -0.7759
v  -109.8005 30.0000 -90.7759
v  -109.8005 30.0000 -0.7759
v  -99.8005 30.0000 -0.7759
v  -99.8005 30.0000 -90.7759
# 8 vertices

vn -0.5774 -0.5774 -0.5774
vn 0.5774 -0.5774 -0.5774
vn 0.5774 -0.5774 0.5774
vn -0.5774 -0.5774 0.5774
vn -0.5774 0.5774 -0.5774
vn -0.5774 0.5774 0.5774
vn 0.5774 0.5774 0.5774
vn 0.5774 0.5774 -0.5774
# 8 vertex normals

vt 1.0000 0.0000 0.0000
vt 1.0000 1.0000 0.0000
vt 0.0000 1.0000 0.0000
vt 0.0000 0.0000 0.0000
# 4 texture coords

o Box012
g Box012
usemtl 01___Default
s 2
f 9/25/9 10/26/10 11/27/11 12/28/12 
s 4
f 13/28/13 14/25/14 15/26/15 16/27/16 
s 8
f 9/28/9 12/25/12 14/26/14 13/27/13 
s 16
f 12/28/12 11/25/11 15/26/15 14/27/14 
s 32
f 11/28/11 10/25/10 16/26/16 15/27/15 
s 64
f 10/28/10 9/25/9 13/26/13 16/27/16 
# 6 polygons

#
# object Box013
#

v  890.2186 0.0000 -90.7759
v  900.2186 0.0000 -90.7759
v  900.2186 0.0000 -0.7759
v  890.2186 0.0000 -0.7759
v  890.2186 30.0000 -90.7759
v  890.2186 30.0000 -0.7759
v  900.2186 30.0000 -0.7759
v  900.2186 30.0000 -90.7759
# 8 vertices

vn -0.5774 -0.5774 -0.5774
vn 0.5774 -0.5774 -0.5774
vn 0.5774 -0.5774 0.5774
vn -0.5774 -0.5774 0.5774
vn -0.5774 0.5774 -0.5774
vn -0.5774 0.5774 0.5774
vn 0.5774 0.5774 0.5774
vn 0.5774 0.5774 -0.5774
# 8 vertex normals

vt 1.0000 0.0000 0.0000
vt 1.0000 1.0000 0.0000
vt 0.0000 1.0000 0.0000
vt 0.0000 0.0000 0.0000
# 4 texture coords

o Box013
g Box013
usemtl 01___Default
s 2
f 17/29/17 18/30/18 19/31/19 20/32/20 
s 4
f 21/32/21 22/29/22 23/30/23 24/31/24 
s 8
f 17/32/17 20/29/20 22/30/22 21/31/21 
s 16
f 20/32/20 19/29/19 23/30/23 22/31/22 
s 32
f 19/32/19 18/29/18 24/30/24 23/31/23 
s 64
f 18/32/18 17/29/17 21/30/21 24/31/24 
# 6 polygons

#
# object Box015
#

v  541.2127 0.0000 -21.3161
v  541.2127 0.0000 -31.3161
v  601.2127 0.0000 -31.3161
v  601.2127 0.0000 -21.3161
v  541.2127 30.0000 -21.3161
v  601.2127 30.0000 -21.3161
v  601.2127 30.0000 -31.3161
v  541.2127 30.0000 -31.3161
# 8 vertices

vn -0.5774 -0.5774 0.5774
vn -0.5774 -0.5774 -0.5774
vn 0.5774 -0.5774 -0.5774
vn 0.5774 -0.5774 0.5774
vn -0.5774 0.5774 0.5774
vn 0.5774 0.5774 0.5774
vn 0.5774 0.5774 -0.5774
vn -0.5774 0.5774 -0.5774
# 8 vertex normals

vt -2.4251 0.5187 0.2000
vt -2.4251 0.7187 0.2000
vt -3.6251 0.7187 0.2000
vt -3.6251 0.5187 0.2000
vt 3.4251 0.5187 0.8000
vt 4.6251 0.5187 0.8000
vt 4.6251 0.7187 0.8000
vt 3.4251 0.7187 0.8000
vt 3.4251 0.2000 0.5187
vt 4.6251 0.2000 0.5187
vt 4.6251 0.8000 0.5187
vt 3.4251 0.8000 0.5187
vt 0.5187 0.2000 4.6251
vt 0.7187 0.2000 4.6251
vt 0.7187 0.8000 4.6251
vt 0.5187 0.8000 4.6251
vt -3.6251 0.2000 0.7187
vt -2.4251 0.2000 0.7187
vt -2.4251 0.8000 0.7187
vt -3.6251 0.8000 0.7187
vt 0.2813 0.2000 3.4251
vt 0.4813 0.2000 3.4251
vt 0.4813 0.8000 3.4251
vt 0.2813 0.8000 3.4251
# 24 texture coords

o Box015
g Box015
usemtl 02___Default
s 2
f 25/33/25 26/34/26 27/35/27 28/36/28 
s 4
f 29/37/29 30/38/30 31/39/31 32/40/32 
s 8
f 25/41/25 28/42/28 30/43/30 29/44/29 
s 16
f 28/45/28 27/46/27 31/47/31 30/48/30 
s 32
f 27/49/27 26/50/26 32/51/32 31/52/31 
s 64
f 26/53/26 25/54/25 29/55/29 32/56/32 
# 6 polygons

#
# object Box017
#

v  -20.1771 0.0000 -20.1106
v  -20.1771 0.0000 -30.1106
v  19.8229 0.0000 -30.1106
v  19.8229 0.0000 -20.1106
v  -20.1771 30.0000 -20.1106
v  19.8229 30.0000 -20.1106
v  19.8229 30.0000 -30.1106
v  -20.1771 30.0000 -30.1106
# 8 vertices

vn -0.5774 -0.5774 0.5774
vn -0.5774 -0.5774 -0.5774
vn 0.5774 -0.5774 -0.5774
vn 0.5774 -0.5774 0.5774
vn -0.5774 0.5774 0.5774
vn 0.5774 0.5774 0.5774
vn 0.5774 0.5774 -0.5774
vn -0.5774 0.5774 -0.5774
# 8 vertex normals

vt 8.3064 0.1009 0.2000
vt 8.3064 0.3009 0.2000
vt 7.5064 0.3009 0.2000
vt 7.5064 0.1009 0.2000
vt -7.3064 0.1009 0.8000
vt -6.5064 0.1009 0.8000
vt -6.5064 0.3009 0.8000
vt -7.3064 0.3009 0.8000
vt -7.3064 0.2000 0.1009
vt -6.5064 0.2000 0.1009
vt -6.5064 0.8000 0.1009
vt -7.3064 0.8000 0.1009
vt 0.1009 0.2000 -6.5064
vt 0.3009 0.2000 -6.5064
vt 0.3009 0.8000 -6.5064
vt 0.1009 0.8000 -6.5064
vt 7.5064 0.2000 0.3009
vt 8.3064 0.2000 0.3009
vt 8.3064 0.8000 0.3009
vt 7.5064 0.8000 0.3009
vt 0.6991 0.2000 -7.3064
vt 0.8991 0.2000 -7.3064
vt 0.8991 0.8000 -7.3064
vt 0.6991 0.8000 -7.3064
# 24 texture coords

o Box017
g Box017
usemtl 02___Default
s 2
f 33/57/33 34/58/34 35/59/35 36/60/36 
s 4
f 37/61/37 38/62/38 39/63/39 40/64/40 
s 8
f 33/65/33 36/66/36 38/67/38 37/68/37 
s 16
f 36/69/36 35/70/35 39/71/39 38/72/38 
s 32
f 35/73/35 34/74/34 40/75/40 39/76/39 
s 64
f 34/77/34 33/78/33 37/79/37 40/80/40 
# 6 polygons

#
# object Box022
#

v  169.8757 0.0000 -20.0000
v  169.8757 0.0000 -30.0000
v  229.8757 0.0000 -30.0000
v  229.8757 0.0000 -20.0000
v  169.8757 30.0000 -20.0000
v  229.8757 30.0000 -20.0000
v  229.8757 30.0000 -30.0000
v  169.8757 30.0000 -30.0000
# 8 vertices

vn -0.5774 -0.5774 0.5774
vn -0.5774 -0.5774 -0.5774
vn 0.5774 -0.5774 -0.5774
vn 0.5774 -0.5774 0.5774
vn -0.5774 0.5774 0.5774
vn 0.5774 0.5774 0.5774
vn 0.5774 0.5774 -0.5774
vn -0.5774 0.5774 -0.5774
# 8 vertex normals

vt 6.2658 0.9024 0.2000
vt 6.2658 1.1024 0.2000
vt 5.0658 1.1024 0.2000
vt 5.0658 0.9024 0.2000
vt -5.2658 0.9024 0.8000
vt -4.0658 0.9024 0.8000
vt -4.0658 1.1024 0.8000
vt -5.2658 1.1024 0.8000
vt -5.2658 0.2000 0.9024
vt -4.0658 0.2000 0.9024
vt -4.0658 0.8000 0.9024
vt -5.2658 0.8000 0.9024
vt 0.9024 0.2000 -4.0658
vt 1.1024 0.2000 -4.0658
vt 1.1024 0.8000 -4.0658
vt 0.9024 0.8000 -4.0658
vt 5.0658 0.2000 1.1024
vt 6.2658 0.2000 1.1024
vt 6.2658 0.8000 1.1024
vt 5.0658 0.8000 1.1024
vt -0.1024 0.2000 -5.2658
vt 0.0976 0.2000 -5.2658
vt 0.0976 0.8000 -5.2658
vt -0.1024 0.8000 -5.2658
# 24 texture coords

o Box022
g Box022
usemtl 02___Default
s 2
f 41/81/41 42/82/42 43/83/43 44/84/44 
s 4
f 45/85/45 46/86/46 47/87/47 48/88/48 
s 8
f 41/89/41 44/90/44 46/91/46 45/92/45 
s 16
f 44/93/44 43/94/43 47/95/47 46/96/46 
s 32
f 43/97/43 42/98/42 48/99/48 47/100/47 
s 64
f 42/101/42 41/102/41 45/103/45 48/104/48 
# 6 polygons

#
# object Box023
#

v  322.3932 0.0000 -21.6539
v  322.3932 0.0000 -31.6539
v  372.3932 0.0000 -31.6539
v  372.3932 0.0000 -21.6539
v  322.3932 30.0000 -21.6539
v  372.3932 30.0000 -21.6539
v  372.3932 30.0000 -31.6539
v  322.3932 30.0000 -31.6539
# 8 vertices

vn -0.5774 -0.5774 0.5774
vn -0.5774 -0.5774 -0.5774
vn 0.5774 -0.5774 -0.5774
vn 0.5774 -0.5774 0.5774
vn -0.5774 0.5774 0.5774
vn 0.5774 0.5774 0.5774
vn 0.5774 0.5774 -0.5774
vn -0.5774 0.5774 -0.5774
# 8 vertex normals

vt 6.1658 0.9024 0.2000
vt 6.1658 1.1024 0.2000
vt 5.1658 1.1024 0.2000
vt 5.1658 0.9024 0.2000
vt -5.1658 0.9024 0.8000
vt -4.1658 0.9024 0.8000
vt -4.1658 1.1024 0.8000
vt -5.1658 1.1024 0.8000
vt -5.1658 0.2000 0.9024
vt -4.1658 0.2000 0.9024
vt -4.1658 0.8000 0.9024
vt -5.1658 0.8000 0.9024
vt 0.9024 0.2000 -4.1658
vt 1.1024 0.2000 -4.1658
vt 1.1024 0.8000 -4.1658
vt 0.9024 0.8000 -4.1658
vt 5.1658 0.2000 1.1024
vt 6.1658 0.2000 1.1024
vt 6.1658 0.8000 1.1024
vt 5.1658 0.8000 1.1024
vt -0.1024 0.2000 -5.1658
vt 0.0976 0.2000 -5.1658
vt 0.0976 0.8000 -5.1658
vt -0.1024 0.8000 -5.1658
# 24 texture coords

o Box023
g Box023
usemtl 02___Default
s 2
f 49/105/49 50/106/50 51/107/51 52/108/52 
s 4
f 53/109/53 54/110/54 55/111/55 56/112/56 
s 8
f 49/113/49 52/114/52 54/115/54 53/116/53 
s 16
f 52/117/52 51/118/51 55/119/55 54/120/54 
s 32
f 51/121/51 50/122/50 56/123/56 55/124/55 
s 64
f 50/125/50 49/126/49 53/127/53 56/128/56 
# 6 polygons

