# 3ds Max Wavefront OBJ Exporter v0.97b - (c)2007 guruware
# File Created: 18.04.2018 17:25:36

mtllib nivel2.mtl

#
# object Box001
#

v  -110.2329 0.0000 9.7373
v  -110.2329 0.0000 -0.2627
v  -20.2329 0.0000 -0.2627
v  -20.2329 0.0000 9.7373
v  -110.2329 30.0000 9.7373
v  -20.2329 30.0000 9.7373
v  -20.2329 30.0000 -0.2627
v  -110.2329 30.0000 -0.2627
# 8 vertices

vn -0.5774 -0.5774 0.5774
vn -0.5774 -0.5774 -0.5774
vn 0.5774 -0.5774 -0.5774
vn 0.5774 -0.5774 0.5774
vn -0.5774 0.5774 0.5774
vn 0.5774 0.5774 0.5774
vn 0.5774 0.5774 -0.5774
vn -0.5774 0.5774 -0.5774
# 8 vertex normals

vt 10.6039 -0.1024 0.2000
vt 10.6039 0.0976 0.2000
vt 8.8039 0.0976 0.2000
vt 8.8039 -0.1024 0.2000
vt -9.6039 -0.1024 0.8000
vt -7.8039 -0.1024 0.8000
vt -7.8039 0.0976 0.8000
vt -9.6039 0.0976 0.8000
vt -9.6039 0.2000 -0.1024
vt -7.8039 0.2000 -0.1024
vt -7.8039 0.8000 -0.1024
vt -9.6039 0.8000 -0.1024
vt -0.1024 0.2000 -7.8039
vt 0.0976 0.2000 -7.8039
vt 0.0976 0.8000 -7.8039
vt -0.1024 0.8000 -7.8039
vt 8.8039 0.2000 0.0976
vt 10.6039 0.2000 0.0976
vt 10.6039 0.8000 0.0976
vt 8.8039 0.8000 0.0976
vt 0.9024 0.2000 -9.6039
vt 1.1024 0.2000 -9.6039
vt 1.1024 0.8000 -9.6039
vt 0.9024 0.8000 -9.6039
# 24 texture coords

o Box001
g Box001
usemtl 02___Default
s 2
f 1/1/1 2/2/2 3/3/3 4/4/4 
s 4
f 5/5/5 6/6/6 7/7/7 8/8/8 
s 8
f 1/9/1 4/10/4 6/11/6 5/12/5 
s 16
f 4/13/4 3/14/3 7/15/7 6/16/6 
s 32
f 3/17/3 2/18/2 8/19/8 7/20/7 
s 64
f 2/21/2 1/22/1 5/23/5 8/24/8 
# 6 polygons

#
# object Box002
#

v  -20.3593 0.0000 -0.4269
v  -20.3593 0.0000 -10.4269
v  69.6407 0.0000 -10.4269
v  69.6407 0.0000 -0.4269
v  -20.3593 30.0000 -0.4269
v  69.6407 30.0000 -0.4269
v  69.6407 30.0000 -10.4269
v  -20.3593 30.0000 -10.4269
# 8 vertices

vn -0.5774 -0.5774 0.5774
vn -0.5774 -0.5774 -0.5774
vn 0.5774 -0.5774 -0.5774
vn 0.5774 -0.5774 0.5774
vn -0.5774 0.5774 0.5774
vn 0.5774 0.5774 0.5774
vn 0.5774 0.5774 -0.5774
vn -0.5774 0.5774 -0.5774
# 8 vertex normals

vt 8.8064 0.1009 0.2000
vt 8.8064 0.3009 0.2000
vt 7.0064 0.3009 0.2000
vt 7.0064 0.1009 0.2000
vt -7.8064 0.1009 0.8000
vt -6.0064 0.1009 0.8000
vt -6.0064 0.3009 0.8000
vt -7.8064 0.3009 0.8000
vt -7.8064 0.2000 0.1009
vt -6.0064 0.2000 0.1009
vt -6.0064 0.8000 0.1009
vt -7.8064 0.8000 0.1009
vt 0.1009 0.2000 -6.0064
vt 0.3009 0.2000 -6.0064
vt 0.3009 0.8000 -6.0064
vt 0.1009 0.8000 -6.0064
vt 7.0064 0.2000 0.3009
vt 8.8064 0.2000 0.3009
vt 8.8064 0.8000 0.3009
vt 7.0064 0.8000 0.3009
vt 0.6991 0.2000 -7.8064
vt 0.8991 0.2000 -7.8064
vt 0.8991 0.8000 -7.8064
vt 0.6991 0.8000 -7.8064
# 24 texture coords

o Box002
g Box002
usemtl 02___Default
s 2
f 9/25/9 10/26/10 11/27/11 12/28/12 
s 4
f 13/29/13 14/30/14 15/31/15 16/32/16 
s 8
f 9/33/9 12/34/12 14/35/14 13/36/13 
s 16
f 12/37/12 11/38/11 15/39/15 14/40/14 
s 32
f 11/41/11 10/42/10 16/43/16 15/44/15 
s 64
f 10/45/10 9/46/9 13/47/13 16/48/16 
# 6 polygons

#
# object Box003
#

v  69.7292 0.0000 -10.4984
v  69.7292 0.0000 -20.4984
v  259.7292 0.0000 -20.4984
v  259.7292 0.0000 -10.4984
v  69.7292 30.0000 -10.4984
v  259.7292 30.0000 -10.4984
v  259.7292 30.0000 -20.4984
v  69.7292 30.0000 -20.4984
# 8 vertices

vn -0.5774 -0.5774 0.5774
vn -0.5774 -0.5774 -0.5774
vn 0.5774 -0.5774 -0.5774
vn 0.5774 -0.5774 0.5774
vn -0.5774 0.5774 0.5774
vn 0.5774 0.5774 0.5774
vn 0.5774 0.5774 -0.5774
vn -0.5774 0.5774 -0.5774
# 8 vertex normals

vt 7.0046 0.3024 0.2000
vt 7.0046 0.5024 0.2000
vt 3.2046 0.5024 0.2000
vt 3.2046 0.3024 0.2000
vt -6.0046 0.3024 0.8000
vt -2.2046 0.3024 0.8000
vt -2.2046 0.5024 0.8000
vt -6.0046 0.5024 0.8000
vt -6.0046 0.2000 0.3024
vt -2.2046 0.2000 0.3024
vt -2.2046 0.8000 0.3024
vt -6.0046 0.8000 0.3024
vt 0.3024 0.2000 -2.2046
vt 0.5024 0.2000 -2.2046
vt 0.5024 0.8000 -2.2046
vt 0.3024 0.8000 -2.2046
vt 3.2046 0.2000 0.5024
vt 7.0046 0.2000 0.5024
vt 7.0046 0.8000 0.5024
vt 3.2046 0.8000 0.5024
vt 0.4976 0.2000 -6.0046
vt 0.6976 0.2000 -6.0046
vt 0.6976 0.8000 -6.0046
vt 0.4976 0.8000 -6.0046
# 24 texture coords

o Box003
g Box003
usemtl 02___Default
s 2
f 17/49/17 18/50/18 19/51/19 20/52/20 
s 4
f 21/53/21 22/54/22 23/55/23 24/56/24 
s 8
f 17/57/17 20/58/20 22/59/22 21/60/21 
s 16
f 20/61/20 19/62/19 23/63/23 22/64/22 
s 32
f 19/65/19 18/66/18 24/67/24 23/68/23 
s 64
f 18/69/18 17/70/17 21/71/21 24/72/24 
# 6 polygons

#
# object Box004
#

v  69.7292 0.0000 -0.5990
v  69.7292 0.0000 -10.5990
v  259.7292 0.0000 -10.5990
v  259.7292 0.0000 -0.5990
v  69.7292 30.0000 -0.5990
v  259.7292 30.0000 -0.5990
v  259.7292 30.0000 -10.5990
v  69.7292 30.0000 -10.5990
# 8 vertices

vn -0.5774 -0.5774 0.5774
vn -0.5774 -0.5774 -0.5774
vn 0.5774 -0.5774 -0.5774
vn 0.5774 -0.5774 0.5774
vn -0.5774 0.5774 0.5774
vn 0.5774 0.5774 0.5774
vn 0.5774 0.5774 -0.5774
vn -0.5774 0.5774 -0.5774
# 8 vertex normals

vt 7.0046 0.1044 0.2000
vt 7.0046 0.3044 0.2000
vt 3.2046 0.3044 0.2000
vt 3.2046 0.1044 0.2000
vt -6.0046 0.1044 0.8000
vt -2.2046 0.1044 0.8000
vt -2.2046 0.3044 0.8000
vt -6.0046 0.3044 0.8000
vt -6.0046 0.2000 0.1044
vt -2.2046 0.2000 0.1044
vt -2.2046 0.8000 0.1044
vt -6.0046 0.8000 0.1044
vt 0.1044 0.2000 -2.2046
vt 0.3044 0.2000 -2.2046
vt 0.3044 0.8000 -2.2046
vt 0.1044 0.8000 -2.2046
vt 3.2046 0.2000 0.3044
vt 7.0046 0.2000 0.3044
vt 7.0046 0.8000 0.3044
vt 3.2046 0.8000 0.3044
vt 0.6956 0.2000 -6.0046
vt 0.8956 0.2000 -6.0046
vt 0.8956 0.8000 -6.0046
vt 0.6956 0.8000 -6.0046
# 24 texture coords

o Box004
g Box004
usemtl 02___Default
s 2
f 25/73/25 26/74/26 27/75/27 28/76/28 
s 4
f 29/77/29 30/78/30 31/79/31 32/80/32 
s 8
f 25/81/25 28/82/28 30/83/30 29/84/29 
s 16
f 28/85/28 27/86/27 31/87/31 30/88/30 
s 32
f 27/89/27 26/90/26 32/91/32 31/92/31 
s 64
f 26/93/26 25/94/25 29/95/29 32/96/32 
# 6 polygons

#
# object Box005
#

v  -24.7259 0.0000 8.8805
v  -24.7259 0.0000 -1.1195
v  465.1976 0.0000 -1.1195
v  465.1976 0.0000 8.8805
v  -24.7259 30.0000 8.8805
v  465.1976 30.0000 8.8805
v  465.1976 30.0000 -1.1195
v  -24.7259 30.0000 -1.1195
# 8 vertices

vn -0.5774 -0.5774 0.5774
vn -0.5774 -0.5774 -0.5774
vn 0.5774 -0.5774 -0.5774
vn 0.5774 -0.5774 0.5774
vn -0.5774 0.5774 0.5774
vn 0.5774 0.5774 0.5774
vn 0.5774 0.5774 -0.5774
vn -0.5774 0.5774 -0.5774
# 8 vertex normals

vt 8.8937 -0.0852 0.2000
vt 8.8937 0.1148 0.2000
vt -0.9048 0.1148 0.2000
vt -0.9048 -0.0852 0.2000
vt -7.8937 -0.0852 0.8000
vt 1.9048 -0.0852 0.8000
vt 1.9048 0.1148 0.8000
vt -7.8937 0.1148 0.8000
vt -7.8937 0.2000 -0.0852
vt 1.9048 0.2000 -0.0852
vt 1.9048 0.8000 -0.0852
vt -7.8937 0.8000 -0.0852
vt -0.0852 0.2000 1.9048
vt 0.1148 0.2000 1.9048
vt 0.1148 0.8000 1.9048
vt -0.0852 0.8000 1.9048
vt -0.9048 0.2000 0.1148
vt 8.8937 0.2000 0.1148
vt 8.8937 0.8000 0.1148
vt -0.9048 0.8000 0.1148
vt 0.8852 0.2000 -7.8937
vt 1.0852 0.2000 -7.8937
vt 1.0852 0.8000 -7.8937
vt 0.8852 0.8000 -7.8937
# 24 texture coords

o Box005
g Box005
usemtl 02___Default
s 2
f 33/97/33 34/98/34 35/99/35 36/100/36 
s 4
f 37/101/37 38/102/38 39/103/39 40/104/40 
s 8
f 33/105/33 36/106/36 38/107/38 37/108/37 
s 16
f 36/109/36 35/110/35 39/111/39 38/112/38 
s 32
f 35/113/35 34/114/34 40/115/40 39/116/39 
s 64
f 34/117/34 33/118/33 37/119/37 40/120/40 
# 6 polygons

#
# object Box006
#

v  349.4148 0.0000 -0.5440
v  349.4148 0.0000 -10.5440
v  459.4148 0.0000 -10.5440
v  459.4148 0.0000 -0.5440
v  349.4148 30.0000 -0.5440
v  459.4148 30.0000 -0.5440
v  459.4148 30.0000 -10.5440
v  349.4148 30.0000 -10.5440
# 8 vertices

vn -0.5774 -0.5774 0.5774
vn -0.5774 -0.5774 -0.5774
vn 0.5774 -0.5774 -0.5774
vn 0.5774 -0.5774 0.5774
vn -0.5774 0.5774 0.5774
vn 0.5774 0.5774 0.5774
vn 0.5774 0.5774 -0.5774
vn -0.5774 0.5774 -0.5774
# 8 vertex normals

vt 1.4109 0.1033 0.2000
vt 1.4109 0.3033 0.2000
vt -0.7891 0.3033 0.2000
vt -0.7891 0.1033 0.2000
vt -0.4109 0.1033 0.8000
vt 1.7891 0.1033 0.8000
vt 1.7891 0.3033 0.8000
vt -0.4109 0.3033 0.8000
vt -0.4109 0.2000 0.1033
vt 1.7891 0.2000 0.1033
vt 1.7891 0.8000 0.1033
vt -0.4109 0.8000 0.1033
vt 0.1033 0.2000 1.7891
vt 0.3033 0.2000 1.7891
vt 0.3033 0.8000 1.7891
vt 0.1033 0.8000 1.7891
vt -0.7891 0.2000 0.3033
vt 1.4109 0.2000 0.3033
vt 1.4109 0.8000 0.3033
vt -0.7891 0.8000 0.3033
vt 0.6967 0.2000 -0.4109
vt 0.8967 0.2000 -0.4109
vt 0.8967 0.8000 -0.4109
vt 0.6967 0.8000 -0.4109
# 24 texture coords

o Box006
g Box006
usemtl 02___Default
s 2
f 41/121/41 42/122/42 43/123/43 44/124/44 
s 4
f 45/125/45 46/126/46 47/127/47 48/128/48 
s 8
f 41/129/41 44/130/44 46/131/46 45/132/45 
s 16
f 44/133/44 43/134/43 47/135/47 46/136/46 
s 32
f 43/137/43 42/138/42 48/139/48 47/140/47 
s 64
f 42/141/42 41/142/41 45/143/45 48/144/48 
# 6 polygons

#
# object Box007
#

v  349.4148 0.0000 -10.7528
v  349.4148 0.0000 -20.7528
v  459.4148 0.0000 -20.7528
v  459.4148 0.0000 -10.7528
v  349.4148 30.0000 -10.7528
v  459.4148 30.0000 -10.7528
v  459.4148 30.0000 -20.7528
v  349.4148 30.0000 -20.7528
# 8 vertices

vn -0.5774 -0.5774 0.5774
vn -0.5774 -0.5774 -0.5774
vn 0.5774 -0.5774 -0.5774
vn 0.5774 -0.5774 0.5774
vn -0.5774 0.5774 0.5774
vn 0.5774 0.5774 0.5774
vn 0.5774 0.5774 -0.5774
vn -0.5774 0.5774 -0.5774
# 8 vertex normals

vt 1.4109 0.3074 0.2000
vt 1.4109 0.5074 0.2000
vt -0.7891 0.5074 0.2000
vt -0.7891 0.3074 0.2000
vt -0.4109 0.3074 0.8000
vt 1.7891 0.3074 0.8000
vt 1.7891 0.5074 0.8000
vt -0.4109 0.5074 0.8000
vt -0.4109 0.2000 0.3074
vt 1.7891 0.2000 0.3074
vt 1.7891 0.8000 0.3074
vt -0.4109 0.8000 0.3074
vt 0.3074 0.2000 1.7891
vt 0.5074 0.2000 1.7891
vt 0.5074 0.8000 1.7891
vt 0.3074 0.8000 1.7891
vt -0.7891 0.2000 0.5074
vt 1.4109 0.2000 0.5074
vt 1.4109 0.8000 0.5074
vt -0.7891 0.8000 0.5074
vt 0.4926 0.2000 -0.4109
vt 0.6926 0.2000 -0.4109
vt 0.6926 0.8000 -0.4109
vt 0.4926 0.8000 -0.4109
# 24 texture coords

o Box007
g Box007
usemtl 02___Default
s 2
f 49/145/49 50/146/50 51/147/51 52/148/52 
s 4
f 53/149/53 54/150/54 55/151/55 56/152/56 
s 8
f 49/153/49 52/154/52 54/155/54 53/156/53 
s 16
f 52/157/52 51/158/51 55/159/55 54/160/54 
s 32
f 51/161/51 50/162/50 56/163/56 55/164/55 
s 64
f 50/165/50 49/166/49 53/167/53 56/168/56 
# 6 polygons

#
# object Box008
#

v  459.7836 0.0000 9.0274
v  459.7836 0.0000 -0.9726
v  569.7836 0.0000 -0.9726
v  569.7836 0.0000 9.0274
v  459.7836 30.0000 9.0274
v  569.7836 30.0000 9.0274
v  569.7836 30.0000 -0.9726
v  459.7836 30.0000 -0.9726
# 8 vertices

vn -0.5774 -0.5774 0.5774
vn -0.5774 -0.5774 -0.5774
vn 0.5774 -0.5774 -0.5774
vn 0.5774 -0.5774 0.5774
vn -0.5774 0.5774 0.5774
vn 0.5774 0.5774 0.5774
vn 0.5774 0.5774 -0.5774
vn -0.5774 0.5774 -0.5774
# 8 vertex normals

vt -0.7965 -0.0882 0.2000
vt -0.7965 0.1118 0.2000
vt -2.9965 0.1118 0.2000
vt -2.9965 -0.0882 0.2000
vt 1.7965 -0.0882 0.8000
vt 3.9965 -0.0882 0.8000
vt 3.9965 0.1118 0.8000
vt 1.7965 0.1118 0.8000
vt 1.7965 0.2000 -0.0882
vt 3.9965 0.2000 -0.0882
vt 3.9965 0.8000 -0.0882
vt 1.7965 0.8000 -0.0882
vt -0.0882 0.2000 3.9965
vt 0.1118 0.2000 3.9965
vt 0.1118 0.8000 3.9965
vt -0.0882 0.8000 3.9965
vt -2.9965 0.2000 0.1118
vt -0.7965 0.2000 0.1118
vt -0.7965 0.8000 0.1118
vt -2.9965 0.8000 0.1118
vt 0.8882 0.2000 1.7965
vt 1.0882 0.2000 1.7965
vt 1.0882 0.8000 1.7965
vt 0.8882 0.8000 1.7965
# 24 texture coords

o Box008
g Box008
usemtl 02___Default
s 2
f 57/169/57 58/170/58 59/171/59 60/172/60 
s 4
f 61/173/61 62/174/62 63/175/63 64/176/64 
s 8
f 57/177/57 60/178/60 62/179/62 61/180/61 
s 16
f 60/181/60 59/182/59 63/183/63 62/184/62 
s 32
f 59/185/59 58/186/58 64/187/64 63/188/63 
s 64
f 58/189/58 57/190/57 61/191/61 64/192/64 
# 6 polygons

#
# object Box009
#

v  569.8903 0.0000 9.0274
v  569.8903 0.0000 -0.9726
v  679.8903 0.0000 -0.9726
v  679.8903 0.0000 9.0274
v  569.8903 30.0000 9.0274
v  679.8903 30.0000 9.0274
v  679.8903 30.0000 -0.9726
v  569.8903 30.0000 -0.9726
# 8 vertices

vn -0.5774 -0.5774 0.5774
vn -0.5774 -0.5774 -0.5774
vn 0.5774 -0.5774 -0.5774
vn 0.5774 -0.5774 0.5774
vn -0.5774 0.5774 0.5774
vn 0.5774 0.5774 0.5774
vn 0.5774 0.5774 -0.5774
vn -0.5774 0.5774 -0.5774
# 8 vertex normals

vt -2.9986 -0.0882 0.2000
vt -2.9986 0.1118 0.2000
vt -5.1986 0.1118 0.2000
vt -5.1986 -0.0882 0.2000
vt 3.9986 -0.0882 0.8000
vt 6.1986 -0.0882 0.8000
vt 6.1986 0.1118 0.8000
vt 3.9986 0.1118 0.8000
vt 3.9986 0.2000 -0.0882
vt 6.1986 0.2000 -0.0882
vt 6.1986 0.8000 -0.0882
vt 3.9986 0.8000 -0.0882
vt -0.0882 0.2000 6.1986
vt 0.1118 0.2000 6.1986
vt 0.1118 0.8000 6.1986
vt -0.0882 0.8000 6.1986
vt -5.1986 0.2000 0.1118
vt -2.9986 0.2000 0.1118
vt -2.9986 0.8000 0.1118
vt -5.1986 0.8000 0.1118
vt 0.8882 0.2000 3.9986
vt 1.0882 0.2000 3.9986
vt 1.0882 0.8000 3.9986
vt 0.8882 0.8000 3.9986
# 24 texture coords

o Box009
g Box009
usemtl 02___Default
s 2
f 65/193/65 66/194/66 67/195/67 68/196/68 
s 4
f 69/197/69 70/198/70 71/199/71 72/200/72 
s 8
f 65/201/65 68/202/68 70/203/70 69/204/69 
s 16
f 68/205/68 67/206/67 71/207/71 70/208/70 
s 32
f 67/209/67 66/210/66 72/211/72 71/212/71 
s 64
f 66/213/66 65/214/65 69/215/69 72/216/72 
# 6 polygons

#
# object Box010
#

v  680.0934 0.0000 9.0274
v  680.0934 0.0000 -0.9726
v  790.0934 0.0000 -0.9726
v  790.0934 0.0000 9.0274
v  680.0934 30.0000 9.0274
v  790.0934 30.0000 9.0274
v  790.0934 30.0000 -0.9726
v  680.0934 30.0000 -0.9726
# 8 vertices

vn -0.5774 -0.5774 0.5774
vn -0.5774 -0.5774 -0.5774
vn 0.5774 -0.5774 -0.5774
vn 0.5774 -0.5774 0.5774
vn -0.5774 0.5774 0.5774
vn 0.5774 0.5774 0.5774
vn 0.5774 0.5774 -0.5774
vn -0.5774 0.5774 -0.5774
# 8 vertex normals

vt -5.2027 -0.0882 0.2000
vt -5.2027 0.1118 0.2000
vt -7.4027 0.1118 0.2000
vt -7.4027 -0.0882 0.2000
vt 6.2027 -0.0882 0.8000
vt 8.4027 -0.0882 0.8000
vt 8.4027 0.1118 0.8000
vt 6.2027 0.1118 0.8000
vt 6.2027 0.2000 -0.0882
vt 8.4027 0.2000 -0.0882
vt 8.4027 0.8000 -0.0882
vt 6.2027 0.8000 -0.0882
vt -0.0882 0.2000 8.4027
vt 0.1118 0.2000 8.4027
vt 0.1118 0.8000 8.4027
vt -0.0882 0.8000 8.4027
vt -7.4027 0.2000 0.1118
vt -5.2027 0.2000 0.1118
vt -5.2027 0.8000 0.1118
vt -7.4027 0.8000 0.1118
vt 0.8882 0.2000 6.2027
vt 1.0882 0.2000 6.2027
vt 1.0882 0.8000 6.2027
vt 0.8882 0.8000 6.2027
# 24 texture coords

o Box010
g Box010
usemtl 02___Default
s 2
f 73/217/73 74/218/74 75/219/75 76/220/76 
s 4
f 77/221/77 78/222/78 79/223/79 80/224/80 
s 8
f 73/225/73 76/226/76 78/227/78 77/228/77 
s 16
f 76/229/76 75/230/75 79/231/79 78/232/78 
s 32
f 75/233/75 74/234/74 80/235/80 79/236/79 
s 64
f 74/237/74 73/238/73 77/239/77 80/240/80 
# 6 polygons

#
# object Box011
#

v  790.1522 0.0000 9.0274
v  790.1522 0.0000 -0.9726
v  900.1522 0.0000 -0.9726
v  900.1522 0.0000 9.0274
v  790.1522 30.0000 9.0274
v  900.1522 30.0000 9.0274
v  900.1522 30.0000 -0.9726
v  790.1522 30.0000 -0.9726
# 8 vertices

vn -0.5774 -0.5774 0.5774
vn -0.5774 -0.5774 -0.5774
vn 0.5774 -0.5774 -0.5774
vn 0.5774 -0.5774 0.5774
vn -0.5774 0.5774 0.5774
vn 0.5774 0.5774 0.5774
vn 0.5774 0.5774 -0.5774
vn -0.5774 0.5774 -0.5774
# 8 vertex normals

vt -7.4039 -0.0882 0.2000
vt -7.4039 0.1118 0.2000
vt -9.6039 0.1118 0.2000
vt -9.6039 -0.0882 0.2000
vt 8.4039 -0.0882 0.8000
vt 10.6039 -0.0882 0.8000
vt 10.6039 0.1118 0.8000
vt 8.4039 0.1118 0.8000
vt 8.4039 0.2000 -0.0882
vt 10.6039 0.2000 -0.0882
vt 10.6039 0.8000 -0.0882
vt 8.4039 0.8000 -0.0882
vt -0.0882 0.2000 10.6039
vt 0.1118 0.2000 10.6039
vt 0.1118 0.8000 10.6039
vt -0.0882 0.8000 10.6039
vt -9.6039 0.2000 0.1118
vt -7.4039 0.2000 0.1118
vt -7.4039 0.8000 0.1118
vt -9.6039 0.8000 0.1118
vt 0.8882 0.2000 8.4039
vt 1.0882 0.2000 8.4039
vt 1.0882 0.8000 8.4039
vt 0.8882 0.8000 8.4039
# 24 texture coords

o Box011
g Box011
usemtl 02___Default
s 2
f 81/241/81 82/242/82 83/243/83 84/244/84 
s 4
f 85/245/85 86/246/86 87/247/87 88/248/88 
s 8
f 81/249/81 84/250/84 86/251/86 85/252/85 
s 16
f 84/253/84 83/254/83 87/255/87 86/256/86 
s 32
f 83/257/83 82/258/82 88/259/88 87/260/87 
s 64
f 82/261/82 81/262/81 85/263/85 88/264/88 
# 6 polygons

#
# object Box012
#

v  -109.8005 0.0000 -90.7759
v  -99.8005 0.0000 -90.7759
v  -99.8005 0.0000 -0.7759
v  -109.8005 0.0000 -0.7759
v  -109.8005 30.0000 -90.7759
v  -109.8005 30.0000 -0.7759
v  -99.8005 30.0000 -0.7759
v  -99.8005 30.0000 -90.7759
# 8 vertices

vn -0.5774 -0.5774 -0.5774
vn 0.5774 -0.5774 -0.5774
vn 0.5774 -0.5774 0.5774
vn -0.5774 -0.5774 0.5774
vn -0.5774 0.5774 -0.5774
vn -0.5774 0.5774 0.5774
vn 0.5774 0.5774 0.5774
vn 0.5774 0.5774 -0.5774
# 8 vertex normals

vt 1.0000 0.0000 0.0000
vt 1.0000 1.0000 0.0000
vt 0.0000 1.0000 0.0000
vt 0.0000 0.0000 0.0000
# 4 texture coords

o Box012
g Box012
usemtl 01___Default
s 2
f 89/265/89 90/266/90 91/267/91 92/268/92 
s 4
f 93/268/93 94/265/94 95/266/95 96/267/96 
s 8
f 89/268/89 92/265/92 94/266/94 93/267/93 
s 16
f 92/268/92 91/265/91 95/266/95 94/267/94 
s 32
f 91/268/91 90/265/90 96/266/96 95/267/95 
s 64
f 90/268/90 89/265/89 93/266/93 96/267/96 
# 6 polygons

#
# object Box013
#

v  890.2186 0.0000 -90.7759
v  900.2186 0.0000 -90.7759
v  900.2186 0.0000 -0.7759
v  890.2186 0.0000 -0.7759
v  890.2186 30.0000 -90.7759
v  890.2186 30.0000 -0.7759
v  900.2186 30.0000 -0.7759
v  900.2186 30.0000 -90.7759
# 8 vertices

vn -0.5774 -0.5774 -0.5774
vn 0.5774 -0.5774 -0.5774
vn 0.5774 -0.5774 0.5774
vn -0.5774 -0.5774 0.5774
vn -0.5774 0.5774 -0.5774
vn -0.5774 0.5774 0.5774
vn 0.5774 0.5774 0.5774
vn 0.5774 0.5774 -0.5774
# 8 vertex normals

vt 1.0000 0.0000 0.0000
vt 1.0000 1.0000 0.0000
vt 0.0000 1.0000 0.0000
vt 0.0000 0.0000 0.0000
# 4 texture coords

o Box013
g Box013
usemtl 01___Default
s 2
f 97/269/97 98/270/98 99/271/99 100/272/100 
s 4
f 101/272/101 102/269/102 103/270/103 104/271/104 
s 8
f 97/272/97 100/269/100 102/270/102 101/271/101 
s 16
f 100/272/100 99/269/99 103/270/103 102/271/102 
s 32
f 99/272/99 98/269/98 104/270/104 103/271/103 
s 64
f 98/272/98 97/269/97 101/270/101 104/271/104 
# 6 polygons

#
# object Box014
#

v  106.6710 0.0000 -40.4984
v  106.6710 0.0000 -50.4984
v  166.6710 0.0000 -50.4984
v  166.6710 0.0000 -40.4984
v  106.6710 30.0000 -40.4984
v  166.6710 30.0000 -40.4984
v  166.6710 30.0000 -50.4984
v  106.6710 30.0000 -50.4984
# 8 vertices

vn -0.5774 -0.5774 0.5774
vn -0.5774 -0.5774 -0.5774
vn 0.5774 -0.5774 -0.5774
vn 0.5774 -0.5774 0.5774
vn -0.5774 0.5774 0.5774
vn 0.5774 0.5774 0.5774
vn 0.5774 0.5774 -0.5774
vn -0.5774 0.5774 -0.5774
# 8 vertex normals

vt 6.2658 0.9024 0.2000
vt 6.2658 1.1024 0.2000
vt 5.0658 1.1024 0.2000
vt 5.0658 0.9024 0.2000
vt -5.2658 0.9024 0.8000
vt -4.0658 0.9024 0.8000
vt -4.0658 1.1024 0.8000
vt -5.2658 1.1024 0.8000
vt -5.2658 0.2000 0.9024
vt -4.0658 0.2000 0.9024
vt -4.0658 0.8000 0.9024
vt -5.2658 0.8000 0.9024
vt 0.9024 0.2000 -4.0658
vt 1.1024 0.2000 -4.0658
vt 1.1024 0.8000 -4.0658
vt 0.9024 0.8000 -4.0658
vt 5.0658 0.2000 1.1024
vt 6.2658 0.2000 1.1024
vt 6.2658 0.8000 1.1024
vt 5.0658 0.8000 1.1024
vt -0.1024 0.2000 -5.2658
vt 0.0976 0.2000 -5.2658
vt 0.0976 0.8000 -5.2658
vt -0.1024 0.8000 -5.2658
# 24 texture coords

o Box014
g Box014
usemtl 02___Default
s 2
f 105/273/105 106/274/106 107/275/107 108/276/108 
s 4
f 109/277/109 110/278/110 111/279/111 112/280/112 
s 8
f 105/281/105 108/282/108 110/283/110 109/284/109 
s 16
f 108/285/108 107/286/107 111/287/111 110/288/110 
s 32
f 107/289/107 106/290/106 112/291/112 111/292/111 
s 64
f 106/293/106 105/294/105 109/295/109 112/296/112 
# 6 polygons

#
# object Box015
#

v  541.2127 0.0000 -21.3161
v  541.2127 0.0000 -31.3161
v  601.2127 0.0000 -31.3161
v  601.2127 0.0000 -21.3161
v  541.2127 30.0000 -21.3161
v  601.2127 30.0000 -21.3161
v  601.2127 30.0000 -31.3161
v  541.2127 30.0000 -31.3161
# 8 vertices

vn -0.5774 -0.5774 0.5774
vn -0.5774 -0.5774 -0.5774
vn 0.5774 -0.5774 -0.5774
vn 0.5774 -0.5774 0.5774
vn -0.5774 0.5774 0.5774
vn 0.5774 0.5774 0.5774
vn 0.5774 0.5774 -0.5774
vn -0.5774 0.5774 -0.5774
# 8 vertex normals

vt -2.4251 0.5187 0.2000
vt -2.4251 0.7187 0.2000
vt -3.6251 0.7187 0.2000
vt -3.6251 0.5187 0.2000
vt 3.4251 0.5187 0.8000
vt 4.6251 0.5187 0.8000
vt 4.6251 0.7187 0.8000
vt 3.4251 0.7187 0.8000
vt 3.4251 0.2000 0.5187
vt 4.6251 0.2000 0.5187
vt 4.6251 0.8000 0.5187
vt 3.4251 0.8000 0.5187
vt 0.5187 0.2000 4.6251
vt 0.7187 0.2000 4.6251
vt 0.7187 0.8000 4.6251
vt 0.5187 0.8000 4.6251
vt -3.6251 0.2000 0.7187
vt -2.4251 0.2000 0.7187
vt -2.4251 0.8000 0.7187
vt -3.6251 0.8000 0.7187
vt 0.2813 0.2000 3.4251
vt 0.4813 0.2000 3.4251
vt 0.4813 0.8000 3.4251
vt 0.2813 0.8000 3.4251
# 24 texture coords

o Box015
g Box015
usemtl 02___Default
s 2
f 113/297/113 114/298/114 115/299/115 116/300/116 
s 4
f 117/301/117 118/302/118 119/303/119 120/304/120 
s 8
f 113/305/113 116/306/116 118/307/118 117/308/117 
s 16
f 116/309/116 115/310/115 119/311/119 118/312/118 
s 32
f 115/313/115 114/314/114 120/315/120 119/316/119 
s 64
f 114/317/114 113/318/113 117/319/117 120/320/120 
# 6 polygons

#
# object Box016
#

v  691.4490 0.0000 -21.3161
v  691.4490 0.0000 -31.3161
v  761.4490 0.0000 -31.3161
v  761.4490 0.0000 -21.3161
v  691.4490 30.0000 -21.3161
v  761.4490 30.0000 -21.3161
v  761.4490 30.0000 -31.3161
v  691.4490 30.0000 -31.3161
# 8 vertices

vn -0.5774 -0.5774 0.5774
vn -0.5774 -0.5774 -0.5774
vn 0.5774 -0.5774 -0.5774
vn 0.5774 -0.5774 0.5774
vn -0.5774 0.5774 0.5774
vn 0.5774 0.5774 0.5774
vn 0.5774 0.5774 -0.5774
vn -0.5774 0.5774 -0.5774
# 8 vertex normals

vt -5.4298 0.5187 0.2000
vt -5.4298 0.7187 0.2000
vt -6.8298 0.7187 0.2000
vt -6.8298 0.5187 0.2000
vt 6.4298 0.5187 0.8000
vt 7.8298 0.5187 0.8000
vt 7.8298 0.7187 0.8000
vt 6.4298 0.7187 0.8000
vt 6.4298 0.2000 0.5187
vt 7.8298 0.2000 0.5187
vt 7.8298 0.8000 0.5187
vt 6.4298 0.8000 0.5187
vt 0.5187 0.2000 7.8298
vt 0.7187 0.2000 7.8298
vt 0.7187 0.8000 7.8298
vt 0.5187 0.8000 7.8298
vt -6.8298 0.2000 0.7187
vt -5.4298 0.2000 0.7187
vt -5.4298 0.8000 0.7187
vt -6.8298 0.8000 0.7187
vt 0.2813 0.2000 6.4298
vt 0.4813 0.2000 6.4298
vt 0.4813 0.8000 6.4298
vt 0.2813 0.8000 6.4298
# 24 texture coords

o Box016
g Box016
usemtl 02___Default
s 2
f 121/321/121 122/322/122 123/323/123 124/324/124 
s 4
f 125/325/125 126/326/126 127/327/127 128/328/128 
s 8
f 121/329/121 124/330/124 126/331/126 125/332/125 
s 16
f 124/333/124 123/334/123 127/335/127 126/336/126 
s 32
f 123/337/123 122/338/122 128/339/128 127/340/127 
s 64
f 122/341/122 121/342/121 125/343/125 128/344/128 
# 6 polygons

