# 3ds Max Wavefront OBJ Exporter v0.97b - (c)2007 guruware
# File Created: 26.03.2018 05:48:11

mtllib pinchos.mtl

#
# object Box003
#

v  0.0000 -0.0000 -120.0000
v  0.0000 -0.0000 -170.0000
v  13.3333 -0.0000 -170.0000
v  13.3333 -0.0000 -120.0000
v  26.6667 -0.0000 -170.0000
v  26.6667 -0.0000 -120.0000
v  40.0000 -0.0000 -170.0000
v  40.0000 -0.0000 -120.0000
v  0.0000 1.2000 -120.0000
v  13.3333 1.2000 -120.0000
v  13.3333 1.2000 -170.0000
v  0.0000 1.2000 -170.0000
v  26.6667 1.2000 -120.0000
v  26.6667 1.2000 -170.0000
v  40.0000 1.2000 -120.0000
v  40.0000 1.2000 -170.0000
# 16 vertices

vn -0.5774 -0.5774 0.5774
vn -0.5774 -0.5774 -0.5774
vn 0.0000 -0.7071 -0.7071
vn 0.0000 -0.7071 0.7071
vn 0.5774 -0.5774 -0.5774
vn 0.5774 -0.5774 0.5774
vn -0.5774 0.5774 0.5774
vn 0.0000 0.7071 0.7071
vn 0.0000 0.7071 -0.7071
vn -0.5774 0.5774 -0.5774
vn 0.5774 0.5774 0.5774
vn 0.5774 0.5774 -0.5774
# 12 vertex normals

vt 1.0000 0.0000 0.0000
vt 1.0000 1.0000 0.0000
vt 0.6667 1.0000 0.0000
vt 0.6667 0.0000 0.0000
vt 0.3333 1.0000 0.0000
vt 0.3333 0.0000 0.0000
vt 0.0000 1.0000 0.0000
vt 0.0000 0.0000 0.0000
# 8 texture coords

o Box003
g Box003
usemtl 02___Default
s 2
f 1/1/1 2/2/2 3/3/3 4/4/4 
f 4/4/4 3/3/3 5/5/3 6/6/4 
f 6/6/4 5/5/3 7/7/5 8/8/6 
s 4
f 9/8/7 10/6/8 11/5/9 12/7/10 
f 10/6/8 13/4/8 14/3/9 11/5/9 
f 13/4/8 15/1/11 16/2/12 14/3/9 
s 8
f 1/8/1 4/6/4 10/5/8 9/7/7 
f 4/6/4 6/4/4 13/3/8 10/5/8 
f 6/4/4 8/1/6 15/2/11 13/3/8 
s 16
f 8/8/6 7/1/5 16/2/12 15/7/11 
s 32
f 7/8/5 5/6/3 14/5/9 16/7/12 
f 5/6/3 3/4/3 11/3/9 14/5/9 
f 3/4/3 2/1/2 12/2/10 11/3/9 
s 64
f 2/8/2 1/1/1 9/2/7 12/7/10 
# 14 polygons

#
# object Cone001
#

v  7.2761 0.6746 -160.0814
v  9.9252 0.1842 -162.7516
v  12.6221 0.2320 -160.0847
v  9.9730 0.7223 -157.4145
v  10.4421 6.4287 -162.8466
v  12.5996 6.4669 -160.7131
v  8.3228 6.8210 -160.7105
v  10.4804 6.8592 -158.5770
v  10.9590 12.6731 -162.9417
v  12.5772 12.7018 -161.3415
v  9.3696 12.9673 -161.3396
v  10.9877 12.9960 -159.7395
v  11.4760 18.9175 -163.0367
v  12.5547 18.9366 -161.9700
v  10.4163 19.1137 -161.9687
v  11.4951 19.1328 -160.9019
v  11.9929 25.1620 -163.1318
v  12.5323 25.1715 -162.5984
v  11.4631 25.2600 -162.5977
v  12.0024 25.2696 -162.0644
v  12.5098 31.4064 -163.2268
# 21 vertices

vn -0.8800 -0.4717 0.0554
vn -0.0522 -0.6250 -0.7789
vn 0.7905 -0.6100 0.0544
vn -0.0373 -0.4568 0.8888
vn -0.0019 -0.0151 -0.9999
vn 1.0000 0.0027 -0.0092
vn -0.9859 0.1671 -0.0080
vn 0.0159 0.1848 0.9826
vn 0.9966 -0.0825 -0.0006
# 9 vertex normals

vt 0.2500 0.0000 1.0000
vt 0.0000 0.0000 1.0000
vt -0.2500 0.0000 1.0000
vt 0.7500 0.0000 1.0000
vt 0.5000 0.0000 1.0000
vt 0.0000 0.2000 0.8000
vt -0.2500 0.2000 0.8000
vt 0.2500 0.2000 0.8000
vt 0.5000 0.2000 0.8000
vt 0.7500 0.2000 0.8000
vt 0.0000 0.4000 0.6000
vt -0.2500 0.4000 0.6000
vt 0.2500 0.4000 0.6000
vt 0.5000 0.4000 0.6000
vt 0.7500 0.4000 0.6000
vt 0.0000 0.6000 0.4000
vt -0.2500 0.6000 0.4000
vt 0.2500 0.6000 0.4000
vt 0.5000 0.6000 0.4000
vt 0.7500 0.6000 0.4000
vt 0.0000 0.8000 0.2000
vt -0.2500 0.8000 0.2000
vt 0.2500 0.8000 0.2000
vt 0.5000 0.8000 0.2000
vt 0.7500 0.8000 0.2000
vt 0.5000 1.0000 0.0000
# 26 texture coords

o Cone001
g Cone001
usemtl 07___Default
s 1
f 17/9/13 18/10/14 19/11/15 
f 19/12/15 20/13/16 17/9/13 
s 8
f 19/11/15 18/10/14 21/14/17 22/15/18 
f 18/10/14 17/9/13 23/16/19 21/14/17 
f 17/9/13 20/13/16 24/17/20 23/16/19 
f 20/13/16 19/12/15 22/18/18 24/17/20 
f 22/15/18 21/14/17 25/19/17 26/20/18 
f 21/14/17 23/16/19 27/21/19 25/19/17 
f 23/16/19 24/17/20 28/22/20 27/21/19 
f 24/17/20 22/18/18 26/23/18 28/22/20 
f 26/20/18 25/19/17 29/24/17 30/25/18 
f 25/19/17 27/21/19 31/26/19 29/24/17 
f 27/21/19 28/22/20 32/27/20 31/26/19 
f 28/22/20 26/23/18 30/28/18 32/27/20 
f 30/25/18 29/24/17 33/29/17 34/30/18 
f 29/24/17 31/26/19 35/31/19 33/29/17 
f 31/26/19 32/27/20 36/32/20 35/31/19 
f 32/27/20 30/28/18 34/33/18 36/32/20 
f 34/30/18 33/29/17 37/34/21 37/34/21 
f 33/29/17 35/31/19 37/34/21 37/34/21 
f 35/31/19 36/32/20 37/34/21 37/34/21 
f 36/32/20 34/33/18 37/34/21 37/34/21 
s 1
f 37/34/21 37/34/21 37/34/21 
f 37/34/21 37/34/21 37/34/21 
# 20 polygons - 4 triangles

#
# object Cone002
#

v  7.7565 1.2508 -140.5431
v  10.3046 0.4135 -143.2252
v  12.8527 -0.4238 -140.5431
v  10.3046 0.4135 -137.8609
v  12.5250 7.1707 -142.6888
v  14.5634 6.5008 -140.5431
v  10.4865 7.8405 -140.5431
v  12.5250 7.1707 -138.3973
v  14.7453 13.9278 -142.1523
v  16.2741 13.4255 -140.5431
v  13.2164 14.4302 -140.5431
v  14.7453 13.9278 -138.9338
v  16.9656 20.6850 -141.6159
v  17.9849 20.3501 -140.5431
v  15.9464 21.0199 -140.5431
v  16.9656 20.6850 -139.4702
v  19.1859 27.4422 -141.0795
v  19.6956 27.2747 -140.5431
v  18.6763 27.6096 -140.5431
v  19.1859 27.4422 -140.0066
v  21.4063 34.1993 -140.5431
# 21 vertices

vn -0.9653 -0.2611 -0.0000
vn -0.1715 -0.5219 -0.8356
vn 0.6223 -0.7828 -0.0000
vn -0.1715 -0.5219 0.8356
vn 0.0235 0.0714 -0.9972
vn 0.9708 -0.2398 -0.0000
vn -0.9239 0.3827 0.0000
vn 0.0235 0.0714 0.9972
vn 0.9500 -0.3122 -0.0000
# 9 vertex normals

vt 0.2500 0.0000 1.0000
vt 0.0000 0.0000 1.0000
vt -0.2500 0.0000 1.0000
vt 0.7500 0.0000 1.0000
vt 0.5000 0.0000 1.0000
vt 0.0000 0.2000 0.8000
vt -0.2500 0.2000 0.8000
vt 0.2500 0.2000 0.8000
vt 0.5000 0.2000 0.8000
vt 0.7500 0.2000 0.8000
vt 0.0000 0.4000 0.6000
vt -0.2500 0.4000 0.6000
vt 0.2500 0.4000 0.6000
vt 0.5000 0.4000 0.6000
vt 0.7500 0.4000 0.6000
vt 0.0000 0.6000 0.4000
vt -0.2500 0.6000 0.4000
vt 0.2500 0.6000 0.4000
vt 0.5000 0.6000 0.4000
vt 0.7500 0.6000 0.4000
vt 0.0000 0.8000 0.2000
vt -0.2500 0.8000 0.2000
vt 0.2500 0.8000 0.2000
vt 0.5000 0.8000 0.2000
vt 0.7500 0.8000 0.2000
vt 0.5000 1.0000 0.0000
# 26 texture coords

o Cone002
g Cone002
usemtl 07___Default
s 1
f 38/35/22 39/36/23 40/37/24 
f 40/38/24 41/39/25 38/35/22 
s 8
f 40/37/24 39/36/23 42/40/26 43/41/27 
f 39/36/23 38/35/22 44/42/28 42/40/26 
f 38/35/22 41/39/25 45/43/29 44/42/28 
f 41/39/25 40/38/24 43/44/27 45/43/29 
f 43/41/27 42/40/26 46/45/26 47/46/27 
f 42/40/26 44/42/28 48/47/28 46/45/26 
f 44/42/28 45/43/29 49/48/29 48/47/28 
f 45/43/29 43/44/27 47/49/27 49/48/29 
f 47/46/27 46/45/26 50/50/26 51/51/27 
f 46/45/26 48/47/28 52/52/28 50/50/26 
f 48/47/28 49/48/29 53/53/29 52/52/28 
f 49/48/29 47/49/27 51/54/27 53/53/29 
f 51/51/27 50/50/26 54/55/26 55/56/27 
f 50/50/26 52/52/28 56/57/28 54/55/26 
f 52/52/28 53/53/29 57/58/29 56/57/28 
f 53/53/29 51/54/27 55/59/27 57/58/29 
f 55/56/27 54/55/26 58/60/30 58/60/30 
f 54/55/26 56/57/28 58/60/30 58/60/30 
f 56/57/28 57/58/29 58/60/30 58/60/30 
f 57/58/29 55/59/27 58/60/30 58/60/30 
s 1
f 58/60/30 58/60/30 58/60/30 
f 58/60/30 58/60/30 58/60/30 
# 20 polygons - 4 triangles

#
# object Cone003
#

v  12.2882 0.4440 -129.1579
v  14.9704 0.9778 -131.7864
v  17.6525 0.4440 -129.1579
v  14.9704 -0.0897 -126.5294
v  14.9704 5.7659 -130.2667
v  17.1161 5.3389 -128.1639
v  12.8247 5.3389 -128.1639
v  14.9704 4.9119 -126.0611
v  14.9704 10.5541 -128.7470
v  16.5797 10.2338 -127.1699
v  13.3611 10.2338 -127.1699
v  14.9704 9.9136 -125.5928
v  14.9704 15.3422 -127.2273
v  16.0432 15.1287 -126.1759
v  13.8975 15.1287 -126.1759
v  14.9704 14.9152 -125.1245
v  14.9704 20.1304 -125.7076
v  15.5068 20.0236 -125.1819
v  14.4340 20.0236 -125.1819
v  14.9704 19.9169 -124.6562
v  14.9704 24.9185 -124.1880
# 21 vertices

vn -0.8432 -0.5269 -0.1070
vn 0.0000 -0.3591 -0.9333
vn 0.8432 -0.5269 -0.1070
vn 0.0000 -0.6947 0.7193
vn -0.0000 0.3025 -0.9531
vn 0.9943 0.1046 0.0213
vn -0.9943 0.1046 0.0213
vn 0.0000 -0.0932 0.9956
vn 1.0000 0.0000 -0.0000
# 9 vertex normals

vt 0.2500 0.0000 1.0000
vt 0.0000 0.0000 1.0000
vt -0.2500 0.0000 1.0000
vt 0.7500 0.0000 1.0000
vt 0.5000 0.0000 1.0000
vt 0.0000 0.2000 0.8000
vt -0.2500 0.2000 0.8000
vt 0.2500 0.2000 0.8000
vt 0.5000 0.2000 0.8000
vt 0.7500 0.2000 0.8000
vt 0.0000 0.4000 0.6000
vt -0.2500 0.4000 0.6000
vt 0.2500 0.4000 0.6000
vt 0.5000 0.4000 0.6000
vt 0.7500 0.4000 0.6000
vt 0.0000 0.6000 0.4000
vt -0.2500 0.6000 0.4000
vt 0.2500 0.6000 0.4000
vt 0.5000 0.6000 0.4000
vt 0.7500 0.6000 0.4000
vt 0.0000 0.8000 0.2000
vt -0.2500 0.8000 0.2000
vt 0.2500 0.8000 0.2000
vt 0.5000 0.8000 0.2000
vt 0.7500 0.8000 0.2000
vt 0.5000 1.0000 0.0000
# 26 texture coords

o Cone003
g Cone003
usemtl 07___Default
s 1
f 59/61/31 60/62/32 61/63/33 
f 61/64/33 62/65/34 59/61/31 
s 8
f 61/63/33 60/62/32 63/66/35 64/67/36 
f 60/62/32 59/61/31 65/68/37 63/66/35 
f 59/61/31 62/65/34 66/69/38 65/68/37 
f 62/65/34 61/64/33 64/70/36 66/69/38 
f 64/67/36 63/66/35 67/71/35 68/72/36 
f 63/66/35 65/68/37 69/73/37 67/71/35 
f 65/68/37 66/69/38 70/74/38 69/73/37 
f 66/69/38 64/70/36 68/75/36 70/74/38 
f 68/72/36 67/71/35 71/76/35 72/77/36 
f 67/71/35 69/73/37 73/78/37 71/76/35 
f 69/73/37 70/74/38 74/79/38 73/78/37 
f 70/74/38 68/75/36 72/80/36 74/79/38 
f 72/77/36 71/76/35 75/81/35 76/82/36 
f 71/76/35 73/78/37 77/83/37 75/81/35 
f 73/78/37 74/79/38 78/84/38 77/83/37 
f 74/79/38 72/80/36 76/85/36 78/84/38 
f 76/82/36 75/81/35 79/86/39 79/86/39 
f 75/81/35 77/83/37 79/86/39 79/86/39 
f 77/83/37 78/84/38 79/86/39 79/86/39 
f 78/84/38 76/85/36 79/86/39 79/86/39 
s 1
f 79/86/39 79/86/39 79/86/39 
f 79/86/39 79/86/39 79/86/39 
# 20 polygons - 4 triangles

#
# object Cone004
#

v  29.6506 0.0000 -129.0242
v  32.3327 -0.8436 -131.5703
v  35.0149 0.0000 -129.0242
v  32.3327 0.8436 -126.4782
v  32.3327 5.7590 -133.1930
v  34.4784 6.4339 -131.1562
v  30.1870 6.4339 -131.1562
v  32.3327 7.1089 -129.1194
v  32.3327 12.3617 -134.8158
v  33.9420 12.8679 -133.2881
v  30.7234 12.8679 -133.2881
v  32.3327 13.3741 -131.7605
v  32.3327 18.9643 -136.4385
v  33.4056 19.3018 -135.4201
v  31.2598 19.3018 -135.4201
v  32.3327 19.6393 -134.4017
v  32.3327 25.5670 -138.0612
v  32.8691 25.7357 -137.5520
v  31.7963 25.7357 -137.5520
v  32.3327 25.9045 -137.0428
v  32.3327 32.1697 -139.6840
# 21 vertices

vn -0.8365 -0.5202 0.1724
vn -0.0000 -0.7833 -0.6216
vn 0.8365 -0.5202 0.1724
vn -0.0000 -0.2571 0.9664
vn -0.0000 -0.2387 -0.9711
vn 0.9969 0.0749 -0.0248
vn -0.9969 0.0749 -0.0248
vn 0.0000 0.3885 0.9215
vn 1.0000 0.0000 -0.0000
# 9 vertex normals

vt 0.2500 0.0000 1.0000
vt 0.0000 0.0000 1.0000
vt -0.2500 0.0000 1.0000
vt 0.7500 0.0000 1.0000
vt 0.5000 0.0000 1.0000
vt 0.0000 0.2000 0.8000
vt -0.2500 0.2000 0.8000
vt 0.2500 0.2000 0.8000
vt 0.5000 0.2000 0.8000
vt 0.7500 0.2000 0.8000
vt 0.0000 0.4000 0.6000
vt -0.2500 0.4000 0.6000
vt 0.2500 0.4000 0.6000
vt 0.5000 0.4000 0.6000
vt 0.7500 0.4000 0.6000
vt 0.0000 0.6000 0.4000
vt -0.2500 0.6000 0.4000
vt 0.2500 0.6000 0.4000
vt 0.5000 0.6000 0.4000
vt 0.7500 0.6000 0.4000
vt 0.0000 0.8000 0.2000
vt -0.2500 0.8000 0.2000
vt 0.2500 0.8000 0.2000
vt 0.5000 0.8000 0.2000
vt 0.7500 0.8000 0.2000
vt 0.5000 1.0000 0.0000
# 26 texture coords

o Cone004
g Cone004
usemtl 07___Default
s 1
f 80/87/40 81/88/41 82/89/42 
f 82/90/42 83/91/43 80/87/40 
s 8
f 82/89/42 81/88/41 84/92/44 85/93/45 
f 81/88/41 80/87/40 86/94/46 84/92/44 
f 80/87/40 83/91/43 87/95/47 86/94/46 
f 83/91/43 82/90/42 85/96/45 87/95/47 
f 85/93/45 84/92/44 88/97/44 89/98/45 
f 84/92/44 86/94/46 90/99/46 88/97/44 
f 86/94/46 87/95/47 91/100/47 90/99/46 
f 87/95/47 85/96/45 89/101/45 91/100/47 
f 89/98/45 88/97/44 92/102/44 93/103/45 
f 88/97/44 90/99/46 94/104/46 92/102/44 
f 90/99/46 91/100/47 95/105/47 94/104/46 
f 91/100/47 89/101/45 93/106/45 95/105/47 
f 93/103/45 92/102/44 96/107/44 97/108/45 
f 92/102/44 94/104/46 98/109/46 96/107/44 
f 94/104/46 95/105/47 99/110/47 98/109/46 
f 95/105/47 93/106/45 97/111/45 99/110/47 
f 97/108/45 96/107/44 100/112/48 100/112/48 
f 96/107/44 98/109/46 100/112/48 100/112/48 
f 98/109/46 99/110/47 100/112/48 100/112/48 
f 99/110/47 97/111/45 100/112/48 100/112/48 
s 1
f 100/112/48 100/112/48 100/112/48 
f 100/112/48 100/112/48 100/112/48 
# 20 polygons - 4 triangles

#
# object Cone005
#

v  15.3862 0.0000 -150.3824
v  18.0683 -0.4439 -153.0275
v  20.7505 0.0000 -150.3824
v  18.0683 0.4439 -147.7372
v  18.0683 4.2629 -153.2735
v  20.2141 4.6181 -151.1574
v  15.9226 4.6181 -151.1574
v  18.0683 4.9732 -149.0412
v  18.0683 8.9698 -153.5195
v  19.6776 9.2361 -151.9324
v  16.4590 9.2361 -151.9324
v  18.0683 9.5025 -150.3453
v  18.0683 13.6766 -153.7654
v  19.1412 13.8542 -152.7074
v  16.9955 13.8542 -152.7074
v  18.0683 14.0317 -151.6493
v  18.0683 18.3835 -154.0114
v  18.6048 18.4722 -153.4824
v  17.5319 18.4722 -153.4824
v  18.0683 18.5610 -152.9533
v  18.0683 23.0903 -154.2573
# 21 vertices

vn -0.8449 -0.5276 0.0885
vn -0.0000 -0.6674 -0.7447
vn 0.8449 -0.5276 0.0885
vn -0.0000 -0.3878 0.9218
vn -0.0000 -0.0522 -0.9986
vn 0.9935 0.1122 -0.0188
vn -0.9935 0.1122 -0.0188
vn 0.0000 0.2767 0.9610
vn 1.0000 0.0000 -0.0000
# 9 vertex normals

vt 0.2500 0.0000 1.0000
vt 0.0000 0.0000 1.0000
vt -0.2500 0.0000 1.0000
vt 0.7500 0.0000 1.0000
vt 0.5000 0.0000 1.0000
vt 0.0000 0.2000 0.8000
vt -0.2500 0.2000 0.8000
vt 0.2500 0.2000 0.8000
vt 0.5000 0.2000 0.8000
vt 0.7500 0.2000 0.8000
vt 0.0000 0.4000 0.6000
vt -0.2500 0.4000 0.6000
vt 0.2500 0.4000 0.6000
vt 0.5000 0.4000 0.6000
vt 0.7500 0.4000 0.6000
vt 0.0000 0.6000 0.4000
vt -0.2500 0.6000 0.4000
vt 0.2500 0.6000 0.4000
vt 0.5000 0.6000 0.4000
vt 0.7500 0.6000 0.4000
vt 0.0000 0.8000 0.2000
vt -0.2500 0.8000 0.2000
vt 0.2500 0.8000 0.2000
vt 0.5000 0.8000 0.2000
vt 0.7500 0.8000 0.2000
vt 0.5000 1.0000 0.0000
# 26 texture coords

o Cone005
g Cone005
usemtl 07___Default
s 1
f 101/113/49 102/114/50 103/115/51 
f 103/116/51 104/117/52 101/113/49 
s 8
f 103/115/51 102/114/50 105/118/53 106/119/54 
f 102/114/50 101/113/49 107/120/55 105/118/53 
f 101/113/49 104/117/52 108/121/56 107/120/55 
f 104/117/52 103/116/51 106/122/54 108/121/56 
f 106/119/54 105/118/53 109/123/53 110/124/54 
f 105/118/53 107/120/55 111/125/55 109/123/53 
f 107/120/55 108/121/56 112/126/56 111/125/55 
f 108/121/56 106/122/54 110/127/54 112/126/56 
f 110/124/54 109/123/53 113/128/53 114/129/54 
f 109/123/53 111/125/55 115/130/55 113/128/53 
f 111/125/55 112/126/56 116/131/56 115/130/55 
f 112/126/56 110/127/54 114/132/54 116/131/56 
f 114/129/54 113/128/53 117/133/53 118/134/54 
f 113/128/53 115/130/55 119/135/55 117/133/53 
f 115/130/55 116/131/56 120/136/56 119/135/55 
f 116/131/56 114/132/54 118/137/54 120/136/56 
f 118/134/54 117/133/53 121/138/57 121/138/57 
f 117/133/53 119/135/55 121/138/57 121/138/57 
f 119/135/55 120/136/56 121/138/57 121/138/57 
f 120/136/56 118/137/54 121/138/57 121/138/57 
s 1
f 121/138/57 121/138/57 121/138/57 
f 121/138/57 121/138/57 121/138/57 
# 20 polygons - 4 triangles

#
# object Cone006
#

v  26.2934 0.4937 -161.6024
v  28.9716 1.5954 -164.0521
v  31.6376 0.9276 -161.4377
v  28.9593 -0.1741 -158.9880
v  28.3873 7.7606 -161.3310
v  30.5200 7.2264 -159.2395
v  26.2447 6.8793 -159.3712
v  28.3774 6.3450 -157.2798
v  27.8030 13.9259 -158.6099
v  29.4025 13.5252 -157.0413
v  26.1960 13.2649 -157.1401
v  27.7956 12.8642 -155.5715
v  27.2186 20.0911 -155.8888
v  28.2850 19.8240 -154.8431
v  26.1473 19.6504 -154.9090
v  27.2137 19.3833 -153.8632
v  26.6343 26.2563 -153.1678
v  27.1675 26.1227 -152.6449
v  26.0986 26.0360 -152.6778
v  26.6318 25.9024 -152.1550
v  26.0500 32.4215 -150.4467
# 21 vertices

vn -0.7861 -0.5830 -0.2056
vn 0.0493 -0.2394 -0.9697
vn 0.8808 -0.4476 -0.1543
vn 0.0455 -0.7913 0.6098
vn -0.0046 0.4034 -0.9150
vn 0.9863 0.1552 0.0566
vn -1.0000 -0.0060 -0.0045
vn -0.0092 -0.2542 0.9671
vn 0.9963 0.0809 0.0307
# 9 vertex normals

vt 0.2500 0.0000 1.0000
vt 0.0000 0.0000 1.0000
vt -0.2500 0.0000 1.0000
vt 0.7500 0.0000 1.0000
vt 0.5000 0.0000 1.0000
vt 0.0000 0.2000 0.8000
vt -0.2500 0.2000 0.8000
vt 0.2500 0.2000 0.8000
vt 0.5000 0.2000 0.8000
vt 0.7500 0.2000 0.8000
vt 0.0000 0.4000 0.6000
vt -0.2500 0.4000 0.6000
vt 0.2500 0.4000 0.6000
vt 0.5000 0.4000 0.6000
vt 0.7500 0.4000 0.6000
vt 0.0000 0.6000 0.4000
vt -0.2500 0.6000 0.4000
vt 0.2500 0.6000 0.4000
vt 0.5000 0.6000 0.4000
vt 0.7500 0.6000 0.4000
vt 0.0000 0.8000 0.2000
vt -0.2500 0.8000 0.2000
vt 0.2500 0.8000 0.2000
vt 0.5000 0.8000 0.2000
vt 0.7500 0.8000 0.2000
vt 0.5000 1.0000 0.0000
# 26 texture coords

o Cone006
g Cone006
usemtl 07___Default
s 1
f 122/139/58 123/140/59 124/141/60 
f 124/142/60 125/143/61 122/139/58 
s 8
f 124/141/60 123/140/59 126/144/62 127/145/63 
f 123/140/59 122/139/58 128/146/64 126/144/62 
f 122/139/58 125/143/61 129/147/65 128/146/64 
f 125/143/61 124/142/60 127/148/63 129/147/65 
f 127/145/63 126/144/62 130/149/62 131/150/63 
f 126/144/62 128/146/64 132/151/64 130/149/62 
f 128/146/64 129/147/65 133/152/65 132/151/64 
f 129/147/65 127/148/63 131/153/63 133/152/65 
f 131/150/63 130/149/62 134/154/62 135/155/63 
f 130/149/62 132/151/64 136/156/64 134/154/62 
f 132/151/64 133/152/65 137/157/65 136/156/64 
f 133/152/65 131/153/63 135/158/63 137/157/65 
f 135/155/63 134/154/62 138/159/62 139/160/63 
f 134/154/62 136/156/64 140/161/64 138/159/62 
f 136/156/64 137/157/65 141/162/65 140/161/64 
f 137/157/65 135/158/63 139/163/63 141/162/65 
f 139/160/63 138/159/62 142/164/66 142/164/66 
f 138/159/62 140/161/64 142/164/66 142/164/66 
f 140/161/64 141/162/65 142/164/66 142/164/66 
f 141/162/65 139/163/63 142/164/66 142/164/66 
s 1
f 142/164/66 142/164/66 142/164/66 
f 142/164/66 142/164/66 142/164/66 
# 20 polygons - 4 triangles

