# Blender v2.79 (sub 0) OBJ File: ''
# www.blender.org
mtllib Pocion.mtl
o Cube.001
v -0.173963 2.002712 -0.173963
v -0.234850 2.002712 0.000000
v -0.344617 2.187062 0.000000
v -0.255272 2.187062 -0.255272
v 0.173963 2.002712 -0.173963
v 0.000000 2.002712 -0.234850
v 0.000000 2.187062 -0.344618
v 0.255272 2.187062 -0.255272
v -0.173963 2.002712 0.173963
v 0.000000 2.002712 0.234850
v 0.000000 2.187062 0.344617
v -0.255272 2.187062 0.255272
v 0.234850 2.002712 0.000000
v 0.344617 2.187062 0.000000
v 0.000000 2.519645 0.268601
v -0.198964 2.519645 0.198964
v 0.198964 2.519645 -0.198964
v 0.268601 2.519645 0.000000
v 0.255272 2.187062 0.255272
v 0.198964 2.519645 0.198964
v 0.173963 2.002712 0.173963
v 0.198964 2.332620 0.198964
v 0.000000 2.332620 0.268601
v 0.268601 2.332620 0.000000
v 0.000000 2.519645 -0.268601
v -0.198964 2.519645 -0.198964
v -0.198964 2.332620 -0.198964
v 0.000000 2.332620 -0.268601
v -0.268601 2.519645 0.000000
v -0.198964 2.332620 0.198964
v -0.268601 2.332620 0.000000
v 0.198964 2.332620 -0.198964
v 0.000000 2.332620 0.000000
v 0.000000 2.332620 -0.268601
v 0.198964 2.332620 -0.198964
v 0.268601 2.332620 0.000000
v -0.268601 2.332620 0.000000
v -0.198964 2.332620 -0.198964
v -0.198964 2.332620 0.198964
v 0.000000 2.332620 0.268601
v 0.198964 2.332620 0.198964
v 0.581911 1.322538 0.000000
v 0.431045 1.322538 -0.431045
v -0.431045 1.322538 0.431045
v 0.000000 1.322538 0.581911
v 0.000000 1.322538 -0.581911
v 0.431045 1.322538 0.431045
v -0.431045 1.322538 -0.431045
v -0.581911 1.322538 0.000000
v 0.817154 0.917629 0.000000
v 0.605299 0.917630 -0.605299
v 0.000000 0.917629 0.817153
v 0.605299 0.917630 0.605299
v 0.000000 0.917629 -0.817154
v -0.605298 0.917630 -0.605299
v -0.605299 0.917630 0.605299
v -0.817154 0.917629 0.000000
v 0.000000 -0.875945 -0.000000
v 0.000001 -0.875945 -1.350000
v 1.000000 -0.875945 -1.000000
v 1.350000 -0.875945 -0.000000
v -1.350000 -0.875945 -0.000001
v -0.999999 -0.875945 -1.000001
v -1.000000 -0.875945 0.999999
v 0.000000 -0.875945 1.350000
v 1.000000 -0.875945 1.000000
v 0.000000 0.515302 1.081048
v 0.800777 0.515302 0.800776
v -1.287367 -0.283814 -1.287368
v -1.737946 -0.283814 -0.000001
v -1.081048 0.515302 -0.000001
v -0.800776 0.515302 -0.800777
v -0.800777 0.515302 0.800776
v -1.287368 -0.283814 1.287367
v 0.000001 -0.283814 -1.737946
v 1.737947 -0.283814 -0.000000
v 1.287368 -0.283814 1.287368
v -0.000001 -0.283814 1.737946
v 1.287368 -0.283814 -1.287367
v 0.000001 0.515302 -1.081048
v 1.081048 0.515302 0.000000
v 0.800777 0.515302 -0.800776
v 0.000000 2.779817 0.227103
v 0.168225 2.779817 0.168225
v 0.227104 2.779817 0.000000
v 0.000000 2.779817 0.000000
v -0.168225 2.779817 0.168225
v -0.227103 2.779817 0.000000
v 0.000000 2.779817 -0.227104
v -0.168225 2.779817 -0.168225
v 0.168225 2.779817 -0.168225
vn -0.8228 -0.4899 -0.2880
vn 0.2880 -0.4899 -0.8228
vn -0.2880 -0.4899 0.8228
vn 0.8228 -0.4899 -0.2880
vn -0.3229 0.2109 0.9226
vn 0.9226 0.2109 -0.3229
vn 0.3229 0.2109 0.9226
vn 0.9226 0.2109 0.3229
vn -0.8228 -0.4899 0.2880
vn -0.2880 -0.4899 -0.8228
vn 0.8228 -0.4899 0.2880
vn 0.2880 -0.4899 0.8228
vn -0.3303 0.0000 -0.9439
vn -0.9439 0.0000 -0.3303
vn 0.3303 -0.0000 0.9439
vn 0.9439 0.0000 -0.3303
vn 0.3229 0.2109 -0.9226
vn -0.9226 0.2109 -0.3229
vn -0.9226 0.2109 0.3229
vn -0.3229 0.2109 -0.9226
vn -0.9439 -0.0000 0.3303
vn 0.3303 0.0000 -0.9439
vn -0.3303 -0.0000 0.9439
vn 0.9439 -0.0000 0.3303
vn 0.0000 -1.0000 0.0000
vn 0.8504 0.4339 -0.2976
vn -0.2976 0.4339 0.8504
vn 0.2976 0.4339 -0.8504
vn 0.2976 0.4339 0.8504
vn 0.8504 0.4339 0.2976
vn -0.2976 0.4339 -0.8504
vn -0.8504 0.4339 -0.2976
vn -0.8504 0.4339 0.2976
vn 0.8276 0.4808 -0.2897
vn 0.2897 0.4808 0.8276
vn 0.8276 0.4808 0.2897
vn -0.2897 0.4808 -0.8276
vn -0.2897 0.4808 0.8276
vn 0.2897 0.4808 -0.8276
vn -0.8276 0.4808 -0.2897
vn -0.8276 0.4808 0.2897
vn 0.2809 0.5264 0.8025
vn -0.7457 0.6130 -0.2610
vn -0.2809 0.5264 0.8025
vn -0.8025 0.5264 -0.2809
vn -0.8028 -0.5259 0.2810
vn -0.2810 -0.5259 -0.8028
vn 0.8028 -0.5259 0.2810
vn 0.2810 -0.5259 0.8028
vn 0.8028 -0.5259 -0.2810
vn -0.2810 -0.5259 0.8028
vn 0.2810 -0.5259 -0.8028
vn -0.8028 -0.5259 -0.2810
vn -0.2610 0.6130 -0.7457
vn 0.7457 0.6130 0.2610
vn 0.2610 0.6130 0.7457
vn 0.7457 0.6130 -0.2610
vn 0.8025 0.5264 0.2809
vn -0.7457 0.6130 0.2610
vn -0.2809 0.5264 -0.8025
vn -0.2610 0.6130 0.7457
vn -0.8025 0.5264 0.2809
vn 0.8025 0.5264 -0.2809
vn 0.2610 0.6130 -0.7457
vn 0.2809 0.5264 -0.8025
vn 0.0000 1.0000 0.0000
vn 0.9403 0.0873 -0.3291
vn -0.3291 0.0873 0.9403
vn 0.3291 0.0873 -0.9403
vn -0.9403 0.0873 -0.3291
vn -0.9403 0.0873 0.3291
vn -0.3291 0.0873 -0.9403
vn 0.9403 0.0873 0.3291
vn 0.3291 0.0873 0.9403
usemtl Material.004
s 1
f 1//1 2//1 3//1 4//1
f 5//2 6//2 7//2 8//2
f 9//3 10//3 11//3 12//3
f 13//4 5//4 8//4 14//4
f 12//5 11//5 15//5 16//5
f 14//6 8//6 17//6 18//6
f 11//7 19//7 20//7 15//7
f 19//8 14//8 18//8 20//8
f 2//9 9//9 12//9 3//9
f 6//10 1//10 4//10 7//10
f 21//11 13//11 14//11 19//11
f 10//12 21//12 19//12 11//12
f 15//13 20//13 22//13 23//13
f 20//14 18//14 24//14 22//14
f 25//15 26//15 27//15 28//15
f 29//16 16//16 30//16 31//16
f 8//17 7//17 25//17 17//17
f 4//18 3//18 29//18 26//18
f 3//19 12//19 16//19 29//19
f 7//20 4//20 26//20 25//20
f 18//21 17//21 32//21 24//21
f 16//22 15//22 23//22 30//22
f 17//23 25//23 28//23 32//23
f 26//24 29//24 31//24 27//24
f 33//25 34//25 35//25 36//25
f 37//25 38//25 34//25 33//25
f 39//25 37//25 33//25 40//25
f 40//25 33//25 36//25 41//25
f 42//26 43//26 5//26 13//26
f 44//27 45//27 10//27 9//27
f 43//28 46//28 6//28 5//28
f 45//29 47//29 21//29 10//29
f 47//30 42//30 13//30 21//30
f 46//31 48//31 1//31 6//31
f 48//32 49//32 2//32 1//32
f 49//33 44//33 9//33 2//33
f 43//34 42//34 50//34 51//34
f 47//35 45//35 52//35 53//35
f 42//36 47//36 53//36 50//36
f 48//37 46//37 54//37 55//37
f 45//38 44//38 56//38 52//38
f 46//39 43//39 51//39 54//39
f 49//40 48//40 55//40 57//40
f 44//41 49//41 57//41 56//41
usemtl Material.005
f 58//25 59//25 60//25 61//25
f 62//25 63//25 59//25 58//25
f 64//25 62//25 58//25 65//25
f 65//25 58//25 61//25 66//25
f 53//42 52//42 67//42 68//42
f 69//43 70//43 71//43 72//43
f 52//44 56//44 73//44 67//44
f 57//45 55//45 72//45 71//45
f 62//46 64//46 74//46 70//46
f 59//47 63//47 69//47 75//47
f 66//48 61//48 76//48 77//48
f 65//49 66//49 77//49 78//49
f 61//50 60//50 79//50 76//50
f 64//51 65//51 78//51 74//51
f 60//52 59//52 75//52 79//52
f 63//53 62//53 70//53 69//53
f 75//54 69//54 72//54 80//54
f 77//55 76//55 81//55 68//55
f 78//56 77//56 68//56 67//56
f 76//57 79//57 82//57 81//57
f 50//58 53//58 68//58 81//58
f 70//59 74//59 73//59 71//59
f 55//60 54//60 80//60 72//60
f 74//61 78//61 67//61 73//61
f 56//62 57//62 71//62 73//62
f 51//63 50//63 81//63 82//63
f 79//64 75//64 80//64 82//64
f 54//65 51//65 82//65 80//65
usemtl Material.006
f 83//66 84//66 85//66 86//66
f 87//66 83//66 86//66 88//66
f 88//66 86//66 89//66 90//66
f 86//66 85//66 91//66 89//66
f 36//67 35//67 91//67 85//67
f 39//68 40//68 83//68 87//68
f 35//69 34//69 89//69 91//69
f 38//70 37//70 88//70 90//70
f 37//71 39//71 87//71 88//71
f 34//72 38//72 90//72 89//72
f 41//73 36//73 85//73 84//73
f 40//74 41//74 84//74 83//74
