# Blender v2.79 (sub 0) OBJ File: 'Pocion.blend'
# www.blender.org
mtllib Pocion.mtl
o Cube
v -1.000000 -0.875945 0.999999
v -0.999999 -0.875945 -1.000001
v 1.000000 -0.875945 -1.000000
v 1.000000 -0.875945 1.000000
v -0.000000 -0.875945 1.350000
v 0.000001 -0.875945 -1.350000
v -1.350000 -0.875945 -0.000001
v 1.350000 -0.875945 0.000000
v 0.000000 -0.875945 -0.000000
v -1.737946 -0.283814 -0.000001
v -1.287367 -0.283814 -1.287368
v -0.000001 -0.283814 1.737946
v 1.287368 -0.283814 1.287368
v 0.000001 -0.283814 -1.737946
v 1.287368 -0.283814 -1.287367
v 1.737947 -0.283814 0.000000
v -1.287368 -0.283814 1.287367
v -0.234850 2.002712 -0.000000
v -0.173963 2.002712 -0.173963
v 0.000000 2.002712 0.234850
v 0.173963 2.002712 0.173963
v 0.000000 2.002712 -0.234850
v 0.173963 2.002712 -0.173963
v 0.234850 2.002712 -0.000000
v -0.173963 2.002712 0.173963
v -0.268601 2.519645 -0.000000
v -0.344617 2.187062 -0.000000
v -0.255272 2.187062 -0.255272
v 0.000000 2.187062 0.344617
v 0.255272 2.187062 0.255272
v 0.000000 2.187062 -0.344618
v 0.255272 2.187062 -0.255272
v 0.344617 2.187062 -0.000000
v -0.255272 2.187062 0.255272
v -0.198964 2.519645 -0.198964
v 0.000000 2.519645 0.268601
v 0.198964 2.519645 0.198964
v 0.000000 2.519645 -0.268601
v 0.198964 2.519645 -0.198964
v 0.268601 2.519645 -0.000000
v -0.198964 2.519645 0.198964
v -0.268601 2.332620 -0.000000
v -0.268601 2.332620 -0.000000
v -0.198964 2.332620 -0.198964
v 0.000000 2.332620 0.268601
v 0.198964 2.332620 0.198964
v 0.000000 2.332620 -0.268601
v 0.198964 2.332620 -0.198964
v 0.268601 2.332620 -0.000000
v -0.198964 2.332620 0.198964
v -0.227103 2.779817 -0.000000
v -0.198964 2.332620 -0.198964
v 0.000000 2.332620 0.268601
v 0.198964 2.332620 0.198964
v 0.000000 2.332620 -0.268601
v 0.198964 2.332620 -0.198964
v 0.268601 2.332620 -0.000000
v -0.198964 2.332620 0.198964
v 0.000000 2.332620 -0.000000
v -0.168225 2.779817 -0.168225
v 0.000000 2.779817 0.227103
v 0.168225 2.779817 0.168225
v 0.000000 2.779817 -0.227104
v 0.168225 2.779817 -0.168225
v 0.227104 2.779817 -0.000000
v -0.168225 2.779817 0.168225
v 0.000000 2.779817 -0.000000
v 0.800777 0.515302 -0.800776
v 0.000001 0.515302 -1.081048
v -0.800777 0.515302 0.800776
v -0.000000 0.515302 1.081048
v -1.081048 0.515302 -0.000001
v -0.800776 0.515302 -0.800777
v 1.081048 0.515302 0.000000
v 0.800777 0.515302 0.800776
v 0.605299 0.917630 -0.605299
v 0.431045 1.322538 -0.431045
v 0.000000 1.322538 -0.581911
v 0.000000 0.917629 -0.817154
v -0.431045 1.322538 0.431045
v -0.605299 0.917630 0.605299
v -0.000000 1.322538 0.581911
v -0.000000 0.917629 0.817153
v -0.817154 0.917629 -0.000000
v -0.581911 1.322538 -0.000000
v -0.605298 0.917630 -0.605299
v -0.431045 1.322538 -0.431045
v 0.581911 1.322538 0.000000
v 0.817154 0.917629 0.000000
v 0.605299 0.917630 0.605299
v 0.431045 1.322538 0.431045
vn -0.8228 -0.4899 -0.2880
vn 0.2880 -0.4899 -0.8228
vn -0.2880 -0.4899 0.8228
vn 0.8228 -0.4899 -0.2880
vn -0.3229 0.2109 0.9226
vn 0.9226 0.2109 -0.3229
vn 0.3229 0.2109 0.9226
vn 0.9226 0.2109 0.3229
vn -0.8228 -0.4899 0.2880
vn -0.2880 -0.4899 -0.8228
vn 0.8228 -0.4899 0.2880
vn 0.2880 -0.4899 0.8228
vn -0.3304 0.0000 -0.9439
vn -0.9439 0.0000 -0.3304
vn 0.3304 0.0000 0.9439
vn 0.9439 0.0000 -0.3303
vn 0.3229 0.2109 -0.9226
vn -0.9226 0.2109 -0.3229
vn -0.9226 0.2109 0.3229
vn -0.3229 0.2109 -0.9226
vn -0.9439 0.0000 0.3303
vn 0.3304 0.0000 -0.9439
vn -0.3304 0.0000 0.9439
vn 0.9439 0.0000 0.3304
vn 0.0000 -1.0000 0.0000
vn 0.8504 0.4339 -0.2976
vn -0.2976 0.4339 0.8504
vn 0.2976 0.4339 -0.8504
vn 0.2976 0.4339 0.8504
vn 0.8504 0.4339 0.2976
vn -0.2976 0.4339 -0.8504
vn -0.8504 0.4339 -0.2976
vn -0.8504 0.4339 0.2976
vn 0.8276 0.4808 -0.2897
vn 0.2897 0.4808 0.8276
vn 0.8276 0.4808 0.2897
vn -0.2897 0.4808 -0.8276
vn -0.2897 0.4808 0.8276
vn 0.2897 0.4808 -0.8276
vn -0.8276 0.4808 -0.2897
vn -0.8276 0.4808 0.2897
vn 0.2809 0.5264 0.8025
vn -0.7457 0.6130 -0.2610
vn -0.2809 0.5264 0.8025
vn -0.8025 0.5264 -0.2809
vn -0.8028 -0.5259 0.2810
vn -0.2810 -0.5259 -0.8028
vn 0.8028 -0.5259 0.2810
vn 0.2810 -0.5259 0.8028
vn 0.8028 -0.5259 -0.2810
vn -0.2810 -0.5259 0.8028
vn 0.2810 -0.5259 -0.8028
vn -0.8028 -0.5259 -0.2810
vn -0.2610 0.6130 -0.7457
vn 0.7457 0.6130 0.2610
vn 0.2610 0.6130 0.7457
vn 0.7457 0.6130 -0.2610
vn 0.8025 0.5264 0.2809
vn -0.7457 0.6130 0.2610
vn -0.2809 0.5264 -0.8025
vn -0.2610 0.6130 0.7457
vn -0.8025 0.5264 0.2809
vn 0.8025 0.5264 -0.2809
vn 0.2610 0.6130 -0.7457
vn 0.2809 0.5264 -0.8025
vn 0.0000 1.0000 0.0000
vn 0.9403 0.0873 -0.3291
vn -0.3291 0.0873 0.9403
vn 0.3291 0.0873 -0.9403
vn -0.9403 0.0873 -0.3291
vn -0.9403 0.0873 0.3291
vn -0.3291 0.0873 -0.9403
vn 0.9403 0.0873 0.3291
vn 0.3291 0.0873 0.9403
usemtl Material
s off
f 19//1 18//1 27//1 28//1
f 23//2 22//2 31//2 32//2
f 25//3 20//3 29//3 34//3
f 24//4 23//4 32//4 33//4
f 34//5 29//5 36//5 41//5
f 33//6 32//6 39//6 40//6
f 29//7 30//7 37//7 36//7
f 30//8 33//8 40//8 37//8
f 18//9 25//9 34//9 27//9
f 22//10 19//10 28//10 31//10
f 21//11 24//11 33//11 30//11
f 20//12 21//12 30//12 29//12
f 36//13 37//13 46//13 45//13
f 37//14 40//14 49//14 46//14
f 38//15 35//15 44//15 47//15
f 26//16 41//16 50//16 43//16
f 32//17 31//17 38//17 39//17
f 28//18 27//18 26//18 35//18
f 27//19 34//19 41//19 26//19
f 31//20 28//20 35//20 38//20
f 40//21 39//21 48//21 49//21
f 41//22 36//22 45//22 50//22
f 39//23 38//23 47//23 48//23
f 35//24 26//24 43//24 44//24
f 59//25 55//25 56//25 57//25
f 42//25 52//25 55//25 59//25
f 58//25 42//25 59//25 53//25
f 53//25 59//25 57//25 54//25
f 88//26 77//26 23//26 24//26
f 80//27 82//27 20//27 25//27
f 77//28 78//28 22//28 23//28
f 82//29 91//29 21//29 20//29
f 91//30 88//30 24//30 21//30
f 78//31 87//31 19//31 22//31
f 87//32 85//32 18//32 19//32
f 85//33 80//33 25//33 18//33
f 77//34 88//34 89//34 76//34
f 91//35 82//35 83//35 90//35
f 88//36 91//36 90//36 89//36
f 87//37 78//37 79//37 86//37
f 82//38 80//38 81//38 83//38
f 78//39 77//39 76//39 79//39
f 85//40 87//40 86//40 84//40
f 80//41 85//41 84//41 81//41
usemtl Material.001
f 9//25 6//25 3//25 8//25
f 7//25 2//25 6//25 9//25
f 1//25 7//25 9//25 5//25
f 5//25 9//25 8//25 4//25
f 90//42 83//42 71//42 75//42
f 11//43 10//43 72//43 73//43
f 83//44 81//44 70//44 71//44
f 84//45 86//45 73//45 72//45
f 7//46 1//46 17//46 10//46
f 6//47 2//47 11//47 14//47
f 4//48 8//48 16//48 13//48
f 5//49 4//49 13//49 12//49
f 8//50 3//50 15//50 16//50
f 1//51 5//51 12//51 17//51
f 3//52 6//52 14//52 15//52
f 2//53 7//53 10//53 11//53
f 14//54 11//54 73//54 69//54
f 13//55 16//55 74//55 75//55
f 12//56 13//56 75//56 71//56
f 16//57 15//57 68//57 74//57
f 89//58 90//58 75//58 74//58
f 10//59 17//59 70//59 72//59
f 86//60 79//60 69//60 73//60
f 17//61 12//61 71//61 70//61
f 81//62 84//62 72//62 70//62
f 76//63 89//63 74//63 68//63
f 15//64 14//64 69//64 68//64
f 79//65 76//65 68//65 69//65
usemtl Material.002
f 61//66 62//66 65//66 67//66
f 66//66 61//66 67//66 51//66
f 51//66 67//66 63//66 60//66
f 67//66 65//66 64//66 63//66
f 57//67 56//67 64//67 65//67
f 58//68 53//68 61//68 66//68
f 56//69 55//69 63//69 64//69
f 52//70 42//70 51//70 60//70
f 42//71 58//71 66//71 51//71
f 55//72 52//72 60//72 63//72
f 54//73 57//73 65//73 62//73
f 53//74 54//74 62//74 61//74
