# 3ds Max Wavefront OBJ Exporter v0.97b - (c)2007 guruware
# File Created: 15.05.2018 17:41:38

mtllib Pincho4.mtl

#
# object Box005
#

v  -20.0000 0.0000 25.0000
v  -20.0000 0.0000 -25.0000
v  -6.6667 0.0000 -25.0000
v  -6.6667 0.0000 25.0000
v  6.6667 0.0000 -25.0000
v  6.6667 0.0000 25.0000
v  20.0000 0.0000 -25.0000
v  20.0000 0.0000 25.0000
v  -20.0000 1.2000 25.0000
v  -6.6667 1.2000 25.0000
v  -6.6667 1.2000 -25.0000
v  -20.0000 1.2000 -25.0000
v  6.6667 1.2000 25.0000
v  6.6667 1.2000 -25.0000
v  20.0000 1.2000 25.0000
v  20.0000 1.2000 -25.0000
# 16 vertices

vn -0.5774 -0.5774 0.5774
vn -0.5774 -0.5774 -0.5774
vn 0.0000 -0.7071 -0.7071
vn 0.0000 -0.7071 0.7071
vn 0.5774 -0.5774 -0.5774
vn 0.5774 -0.5774 0.5774
vn -0.5774 0.5774 0.5774
vn 0.0000 0.7071 0.7071
vn 0.0000 0.7071 -0.7071
vn -0.5774 0.5774 -0.5774
vn 0.5774 0.5774 0.5774
vn 0.5774 0.5774 -0.5774
# 12 vertex normals

vt 1.0000 0.0000 0.0000
vt 1.0000 1.0000 0.0000
vt 0.6667 1.0000 0.0000
vt 0.6667 0.0000 0.0000
vt 0.3333 1.0000 0.0000
vt 0.3333 0.0000 0.0000
vt -0.0000 1.0000 0.0000
vt -0.0000 0.0000 0.0000
vt 0.0000 0.0000 0.0000
vt 0.0000 1.0000 0.0000
# 10 texture coords

o Box005
g Box005
usemtl Base
s 2
f 1/1/1 2/2/2 3/3/3 4/4/4 
f 4/4/4 3/3/3 5/5/3 6/6/4 
f 6/6/4 5/5/3 7/7/5 8/8/6 
s 4
f 9/9/7 10/6/8 11/5/9 12/10/10 
f 10/6/8 13/4/8 14/3/9 11/5/9 
f 13/4/8 15/1/11 16/2/12 14/3/9 
s 8
f 1/9/1 4/6/4 10/5/8 9/10/7 
f 4/6/4 6/4/4 13/3/8 10/5/8 
f 6/4/4 8/1/6 15/2/11 13/3/8 
s 16
f 8/9/6 7/1/5 16/2/12 15/10/11 
s 32
f 7/9/5 5/6/3 14/5/9 16/10/12 
f 5/6/3 3/4/3 11/3/9 14/5/9 
f 3/4/3 2/1/2 12/2/10 11/3/9 
s 64
f 2/9/2 1/1/1 9/2/7 12/10/10 
# 14 polygons

#
# object Cone020
#

v  -10.8409 0.3686 6.2591
v  -13.3890 1.2059 3.5769
v  -10.8409 0.3686 0.8948
v  -8.2927 -0.4687 3.5769
v  -8.6205 7.1258 1.4312
v  -6.5820 6.4559 3.5769
v  -10.6590 7.7956 3.5769
v  -8.6205 7.1258 5.7226
v  -6.4002 13.8829 1.9676
v  -4.8713 13.3806 3.5769
v  -7.9291 14.3853 3.5769
v  -6.4002 13.8829 5.1862
v  -4.1799 20.6401 2.5040
v  -3.1606 20.3052 3.5769
v  -5.1991 20.9750 3.5769
v  -4.1799 20.6401 4.6498
v  -1.9595 27.3973 3.0405
v  -1.4499 27.2298 3.5769
v  -2.4692 27.5647 3.5769
v  -1.9595 27.3973 4.1133
v  0.2608 34.1544 3.5769
# 21 vertices

vn -0.1715 -0.5219 0.8356
vn -0.9653 -0.2611 -0.0000
vn -0.1715 -0.5219 -0.8356
vn 0.6224 -0.7827 -0.0000
vn 0.0235 0.0714 -0.9972
vn 0.9708 -0.2398 -0.0000
vn -0.9239 0.3827 0.0000
vn 0.0235 0.0714 0.9972
vn 0.9500 -0.3122 -0.0000
# 9 vertex normals

vt 0.5000 0.0000 1.0000
vt 0.2500 0.0000 1.0000
vt 0.0000 0.0000 1.0000
vt -0.2500 0.0000 1.0000
vt 0.0000 0.2000 0.8000
vt -0.2500 0.2000 0.8000
vt 0.2500 0.2000 0.8000
vt 0.5000 0.2000 0.8000
vt 0.7500 0.0000 1.0000
vt 0.7500 0.2000 0.8000
vt 0.0000 0.4000 0.6000
vt -0.2500 0.4000 0.6000
vt 0.2500 0.4000 0.6000
vt 0.5000 0.4000 0.6000
vt 0.7500 0.4000 0.6000
vt 0.0000 0.6000 0.4000
vt -0.2500 0.6000 0.4000
vt 0.2500 0.6000 0.4000
vt 0.5000 0.6000 0.4000
vt 0.7500 0.6000 0.4000
vt 0.0000 0.8000 0.2000
vt -0.2500 0.8000 0.2000
vt 0.2500 0.8000 0.2000
vt 0.5000 0.8000 0.2000
vt 0.7500 0.8000 0.2000
vt 0.5000 1.0000 0.0000
# 26 texture coords

o Cone020
g Cone020
usemtl Puas
s 1
f 17/11/13 18/12/14 19/13/15 20/14/16 
s 8
f 20/14/16 19/13/15 21/15/17 22/16/18 
f 19/13/15 18/12/14 23/17/19 21/15/17 
f 18/12/14 17/11/13 24/18/20 23/17/19 
f 17/11/13 20/19/16 22/20/18 24/18/20 
f 22/16/18 21/15/17 25/21/17 26/22/18 
f 21/15/17 23/17/19 27/23/19 25/21/17 
f 23/17/19 24/18/20 28/24/20 27/23/19 
f 24/18/20 22/20/18 26/25/18 28/24/20 
f 26/22/18 25/21/17 29/26/17 30/27/18 
f 25/21/17 27/23/19 31/28/19 29/26/17 
f 27/23/19 28/24/20 32/29/20 31/28/19 
f 28/24/20 26/25/18 30/30/18 32/29/20 
f 30/27/18 29/26/17 33/31/17 34/32/18 
f 29/26/17 31/28/19 35/33/19 33/31/17 
f 31/28/19 32/29/20 36/34/20 35/33/19 
f 32/29/20 30/30/18 34/35/18 36/34/20 
f 34/32/18 33/31/17 37/36/21 37/36/21 
f 33/31/17 35/33/19 37/36/21 37/36/21 
f 35/33/19 36/34/20 37/36/21 37/36/21 
f 36/34/20 34/35/18 37/36/21 37/36/21 
s 1
f 37/36/21 37/36/21 37/36/21 37/36/21 
# 22 polygons

#
# object Cone021
#

v  -6.1751 -0.1347 17.5906
v  -8.8572 0.3991 14.9621
v  -6.1751 0.9329 12.3336
v  -3.4929 0.3991 14.9621
v  -6.1751 5.7210 13.8533
v  -4.0294 5.2940 15.9561
v  -8.3208 5.2940 15.9561
v  -6.1751 4.8670 18.0589
v  -6.1751 10.5092 15.3730
v  -4.5658 10.1889 16.9501
v  -7.7844 10.1889 16.9501
v  -6.1751 9.8687 18.5272
v  -6.1751 15.2973 16.8927
v  -5.1022 15.0838 17.9441
v  -7.2479 15.0838 17.9441
v  -6.1751 14.8703 18.9955
v  -6.1751 20.0855 18.4124
v  -5.6387 19.9787 18.9381
v  -6.7115 19.9787 18.9381
v  -6.1751 19.8720 19.4638
v  -6.1751 24.8736 19.9321
# 21 vertices

vn 0.0000 -0.6947 0.7193
vn -0.8432 -0.5269 -0.1070
vn 0.0000 -0.3591 -0.9333
vn 0.8433 -0.5268 -0.1070
vn -0.0000 0.3025 -0.9531
vn 0.9943 0.1046 0.0213
vn -0.9943 0.1046 0.0213
vn 0.0000 -0.0932 0.9956
vn 1.0000 0.0000 -0.0000
# 9 vertex normals

vt 0.5000 0.0000 1.0000
vt 0.2500 0.0000 1.0000
vt 0.0000 0.0000 1.0000
vt -0.2500 0.0000 1.0000
vt 0.0000 0.2000 0.8000
vt -0.2500 0.2000 0.8000
vt 0.2500 0.2000 0.8000
vt 0.5000 0.2000 0.8000
vt 0.7500 0.0000 1.0000
vt 0.7500 0.2000 0.8000
vt 0.0000 0.4000 0.6000
vt -0.2500 0.4000 0.6000
vt 0.2500 0.4000 0.6000
vt 0.5000 0.4000 0.6000
vt 0.7500 0.4000 0.6000
vt 0.0000 0.6000 0.4000
vt -0.2500 0.6000 0.4000
vt 0.2500 0.6000 0.4000
vt 0.5000 0.6000 0.4000
vt 0.7500 0.6000 0.4000
vt 0.0000 0.8000 0.2000
vt -0.2500 0.8000 0.2000
vt 0.2500 0.8000 0.2000
vt 0.5000 0.8000 0.2000
vt 0.7500 0.8000 0.2000
vt 0.5000 1.0000 0.0000
# 26 texture coords

o Cone021
g Cone021
usemtl Puas
s 1
f 38/37/22 39/38/23 40/39/24 41/40/25 
s 8
f 41/40/25 40/39/24 42/41/26 43/42/27 
f 40/39/24 39/38/23 44/43/28 42/41/26 
f 39/38/23 38/37/22 45/44/29 44/43/28 
f 38/37/22 41/45/25 43/46/27 45/44/29 
f 43/42/27 42/41/26 46/47/26 47/48/27 
f 42/41/26 44/43/28 48/49/28 46/47/26 
f 44/43/28 45/44/29 49/50/29 48/49/28 
f 45/44/29 43/46/27 47/51/27 49/50/29 
f 47/48/27 46/47/26 50/52/26 51/53/27 
f 46/47/26 48/49/28 52/54/28 50/52/26 
f 48/49/28 49/50/29 53/55/29 52/54/28 
f 49/50/29 47/51/27 51/56/27 53/55/29 
f 51/53/27 50/52/26 54/57/26 55/58/27 
f 50/52/26 52/54/28 56/59/28 54/57/26 
f 52/54/28 53/55/29 57/60/29 56/59/28 
f 53/55/29 51/56/27 55/61/27 57/60/29 
f 55/58/27 54/57/26 58/62/30 58/62/30 
f 54/57/26 56/59/28 58/62/30 58/62/30 
f 56/59/28 57/60/29 58/62/30 58/62/30 
f 57/60/29 55/61/27 58/62/30 58/62/30 
s 1
f 58/62/30 58/62/30 58/62/30 58/62/30 
# 22 polygons

#
# object Cone022
#

v  11.1872 0.7987 17.6418
v  8.5051 -0.0449 15.0958
v  11.1872 -0.8886 12.5497
v  13.8694 -0.0449 15.0958
v  11.1872 5.7141 10.9270
v  13.3330 6.3890 12.9638
v  9.0415 6.3890 12.9638
v  11.1872 7.0639 15.0006
v  11.1872 12.3168 9.3043
v  12.7965 12.8230 10.8319
v  9.5779 12.8230 10.8319
v  11.1872 13.3291 12.3595
v  11.1872 18.9194 7.6815
v  12.2601 19.2569 8.6999
v  10.1144 19.2569 8.6999
v  11.1872 19.5944 9.7183
v  11.1872 25.5221 6.0588
v  11.7237 25.6908 6.5680
v  10.6508 25.6908 6.5680
v  11.1872 25.8596 7.0772
v  11.1872 32.1248 4.4360
# 21 vertices

vn -0.0000 -0.2571 0.9664
vn -0.8365 -0.5202 0.1724
vn -0.0000 -0.7833 -0.6216
vn 0.8365 -0.5201 0.1723
vn -0.0000 -0.2387 -0.9711
vn 0.9969 0.0749 -0.0248
vn -0.9969 0.0749 -0.0248
vn 0.0000 0.3885 0.9215
vn 1.0000 0.0000 -0.0000
# 9 vertex normals

vt 0.5000 0.0000 1.0000
vt 0.2500 0.0000 1.0000
vt 0.0000 0.0000 1.0000
vt -0.2500 0.0000 1.0000
vt 0.0000 0.2000 0.8000
vt -0.2500 0.2000 0.8000
vt 0.2500 0.2000 0.8000
vt 0.5000 0.2000 0.8000
vt 0.7500 0.0000 1.0000
vt 0.7500 0.2000 0.8000
vt 0.0000 0.4000 0.6000
vt -0.2500 0.4000 0.6000
vt 0.2500 0.4000 0.6000
vt 0.5000 0.4000 0.6000
vt 0.7500 0.4000 0.6000
vt 0.0000 0.6000 0.4000
vt -0.2500 0.6000 0.4000
vt 0.2500 0.6000 0.4000
vt 0.5000 0.6000 0.4000
vt 0.7500 0.6000 0.4000
vt 0.0000 0.8000 0.2000
vt -0.2500 0.8000 0.2000
vt 0.2500 0.8000 0.2000
vt 0.5000 0.8000 0.2000
vt 0.7500 0.8000 0.2000
vt 0.5000 1.0000 0.0000
# 26 texture coords

o Cone022
g Cone022
usemtl Puas
s 1
f 59/63/31 60/64/32 61/65/33 62/66/34 
s 8
f 62/66/34 61/65/33 63/67/35 64/68/36 
f 61/65/33 60/64/32 65/69/37 63/67/35 
f 60/64/32 59/63/31 66/70/38 65/69/37 
f 59/63/31 62/71/34 64/72/36 66/70/38 
f 64/68/36 63/67/35 67/73/35 68/74/36 
f 63/67/35 65/69/37 69/75/37 67/73/35 
f 65/69/37 66/70/38 70/76/38 69/75/37 
f 66/70/38 64/72/36 68/77/36 70/76/38 
f 68/74/36 67/73/35 71/78/35 72/79/36 
f 67/73/35 69/75/37 73/80/37 71/78/35 
f 69/75/37 70/76/38 74/81/38 73/80/37 
f 70/76/38 68/77/36 72/82/36 74/81/38 
f 72/79/36 71/78/35 75/83/35 76/84/36 
f 71/78/35 73/80/37 77/85/37 75/83/35 
f 73/80/37 74/81/38 78/86/38 77/85/37 
f 74/81/38 72/82/36 76/87/36 78/86/38 
f 76/84/36 75/83/35 79/88/39 79/88/39 
f 75/83/35 77/85/37 79/88/39 79/88/39 
f 77/85/37 78/86/38 79/88/39 79/88/39 
f 78/86/38 76/87/36 79/88/39 79/88/39 
s 1
f 79/88/39 79/88/39 79/88/39 79/88/39 
# 22 polygons

#
# object Cone023
#

v  -3.0771 0.3990 -3.6172
v  -5.7593 -0.0449 -6.2624
v  -3.0771 -0.4888 -8.9076
v  -0.3950 -0.0449 -6.2624
v  -3.0771 4.2180 -9.1535
v  -0.9314 4.5731 -7.0374
v  -5.2229 4.5731 -7.0374
v  -3.0771 4.9283 -4.9213
v  -3.0771 8.9249 -9.3995
v  -1.4678 9.1912 -7.8124
v  -4.6864 9.1912 -7.8124
v  -3.0771 9.4576 -6.2253
v  -3.0771 13.6317 -9.6454
v  -2.0043 13.8093 -8.5874
v  -4.1500 13.8093 -8.5874
v  -3.0771 13.9868 -7.5293
v  -3.0771 18.3385 -9.8914
v  -2.5407 18.4273 -9.3624
v  -3.6136 18.4273 -9.3624
v  -3.0771 18.5161 -8.8333
v  -3.0771 23.0454 -10.1373
# 21 vertices

vn -0.0000 -0.3878 0.9218
vn -0.8449 -0.5276 0.0885
vn -0.0000 -0.6674 -0.7447
vn 0.8449 -0.5275 0.0885
vn -0.0000 -0.0522 -0.9986
vn 0.9935 0.1122 -0.0188
vn -0.9935 0.1122 -0.0188
vn 0.0000 0.2767 0.9610
vn 1.0000 0.0000 -0.0000
# 9 vertex normals

vt 0.5000 0.0000 1.0000
vt 0.2500 0.0000 1.0000
vt 0.0000 0.0000 1.0000
vt -0.2500 0.0000 1.0000
vt 0.0000 0.2000 0.8000
vt -0.2500 0.2000 0.8000
vt 0.2500 0.2000 0.8000
vt 0.5000 0.2000 0.8000
vt 0.7500 0.0000 1.0000
vt 0.7500 0.2000 0.8000
vt 0.0000 0.4000 0.6000
vt -0.2500 0.4000 0.6000
vt 0.2500 0.4000 0.6000
vt 0.5000 0.4000 0.6000
vt 0.7500 0.4000 0.6000
vt 0.0000 0.6000 0.4000
vt -0.2500 0.6000 0.4000
vt 0.2500 0.6000 0.4000
vt 0.5000 0.6000 0.4000
vt 0.7500 0.6000 0.4000
vt 0.0000 0.8000 0.2000
vt -0.2500 0.8000 0.2000
vt 0.2500 0.8000 0.2000
vt 0.5000 0.8000 0.2000
vt 0.7500 0.8000 0.2000
vt 0.5000 1.0000 0.0000
# 26 texture coords

o Cone023
g Cone023
usemtl Puas
s 1
f 80/89/40 81/90/41 82/91/42 83/92/43 
s 8
f 83/92/43 82/91/42 84/93/44 85/94/45 
f 82/91/42 81/90/41 86/95/46 84/93/44 
f 81/90/41 80/89/40 87/96/47 86/95/46 
f 80/89/40 83/97/43 85/98/45 87/96/47 
f 85/94/45 84/93/44 88/99/44 89/100/45 
f 84/93/44 86/95/46 90/101/46 88/99/44 
f 86/95/46 87/96/47 91/102/47 90/101/46 
f 87/96/47 85/98/45 89/103/45 91/102/47 
f 89/100/45 88/99/44 92/104/44 93/105/45 
f 88/99/44 90/101/46 94/106/46 92/104/44 
f 90/101/46 91/102/47 95/107/47 94/106/46 
f 91/102/47 89/103/45 93/108/45 95/107/47 
f 93/105/45 92/104/44 96/109/44 97/110/45 
f 92/104/44 94/106/46 98/111/46 96/109/44 
f 94/106/46 95/107/47 99/112/47 98/111/46 
f 95/107/47 93/108/45 97/113/45 99/112/47 
f 97/110/45 96/109/44 100/114/48 100/114/48 
f 96/109/44 98/111/46 100/114/48 100/114/48 
f 98/111/46 99/112/47 100/114/48 100/114/48 
f 99/112/47 97/113/45 100/114/48 100/114/48 
s 1
f 100/114/48 100/114/48 100/114/48 100/114/48 
# 22 polygons

#
# object Cone024
#

v  7.8138 -0.2190 -14.8680
v  5.1479 0.4488 -17.4823
v  7.8262 1.5505 -19.9320
v  10.4921 0.8827 -17.3177
v  7.2418 7.7157 -17.2110
v  9.3746 7.1815 -15.1195
v  5.0992 6.8344 -15.2512
v  7.2320 6.3001 -13.1597
v  6.6575 13.8809 -14.4899
v  8.2571 13.4803 -12.9213
v  5.0505 13.2199 -13.0201
v  6.6501 12.8193 -11.4515
v  6.0732 20.0462 -11.7688
v  7.1395 19.7790 -10.7231
v  5.0019 19.6055 -10.7889
v  6.0682 19.3384 -9.7432
v  5.4888 26.2114 -9.0478
v  6.0220 26.0778 -8.5249
v  4.9532 25.9911 -8.5578
v  5.4864 25.8575 -8.0350
v  4.9045 32.3766 -6.3267
# 21 vertices

vn 0.0455 -0.7913 0.6098
vn -0.7861 -0.5830 -0.2056
vn 0.0493 -0.2394 -0.9697
vn 0.8809 -0.4475 -0.1542
vn -0.0046 0.4034 -0.9150
vn 0.9863 0.1552 0.0566
vn -1.0000 -0.0060 -0.0045
vn -0.0092 -0.2542 0.9671
vn 0.9963 0.0809 0.0307
# 9 vertex normals

vt 0.5000 0.0000 1.0000
vt 0.2500 0.0000 1.0000
vt 0.0000 0.0000 1.0000
vt -0.2500 0.0000 1.0000
vt 0.0000 0.2000 0.8000
vt -0.2500 0.2000 0.8000
vt 0.2500 0.2000 0.8000
vt 0.5000 0.2000 0.8000
vt 0.7500 0.0000 1.0000
vt 0.7500 0.2000 0.8000
vt 0.0000 0.4000 0.6000
vt -0.2500 0.4000 0.6000
vt 0.2500 0.4000 0.6000
vt 0.5000 0.4000 0.6000
vt 0.7500 0.4000 0.6000
vt 0.0000 0.6000 0.4000
vt -0.2500 0.6000 0.4000
vt 0.2500 0.6000 0.4000
vt 0.5000 0.6000 0.4000
vt 0.7500 0.6000 0.4000
vt 0.0000 0.8000 0.2000
vt -0.2500 0.8000 0.2000
vt 0.2500 0.8000 0.2000
vt 0.5000 0.8000 0.2000
vt 0.7500 0.8000 0.2000
vt 0.5000 1.0000 0.0000
# 26 texture coords

o Cone024
g Cone024
usemtl Puas
s 1
f 101/115/49 102/116/50 103/117/51 104/118/52 
s 8
f 104/118/52 103/117/51 105/119/53 106/120/54 
f 103/117/51 102/116/50 107/121/55 105/119/53 
f 102/116/50 101/115/49 108/122/56 107/121/55 
f 101/115/49 104/123/52 106/124/54 108/122/56 
f 106/120/54 105/119/53 109/125/53 110/126/54 
f 105/119/53 107/121/55 111/127/55 109/125/53 
f 107/121/55 108/122/56 112/128/56 111/127/55 
f 108/122/56 106/124/54 110/129/54 112/128/56 
f 110/126/54 109/125/53 113/130/53 114/131/54 
f 109/125/53 111/127/55 115/132/55 113/130/53 
f 111/127/55 112/128/56 116/133/56 115/132/55 
f 112/128/56 110/129/54 114/134/54 116/133/56 
f 114/131/54 113/130/53 117/135/53 118/136/54 
f 113/130/53 115/132/55 119/137/55 117/135/53 
f 115/132/55 116/133/56 120/138/56 119/137/55 
f 116/133/56 114/134/54 118/139/54 120/138/56 
f 118/136/54 117/135/53 121/140/57 121/140/57 
f 117/135/53 119/137/55 121/140/57 121/140/57 
f 119/137/55 120/138/56 121/140/57 121/140/57 
f 120/138/56 118/139/54 121/140/57 121/140/57 
s 1
f 121/140/57 121/140/57 121/140/57 121/140/57 
# 22 polygons

#
# object Cone019
#

v  -11.1725 0.6774 -13.2945
v  -13.8694 0.6297 -15.9614
v  -11.2203 0.1393 -18.6315
v  -8.5234 0.1871 -15.9646
v  -10.7034 6.3838 -18.7266
v  -8.5458 6.4220 -16.5931
v  -12.8226 6.7760 -16.5905
v  -10.6651 6.8143 -14.4570
v  -10.1864 12.6282 -18.8216
v  -8.5683 12.6569 -17.2215
v  -11.7759 12.9224 -17.2195
v  -10.1578 12.9511 -15.6194
v  -9.6695 18.8726 -18.9167
v  -8.5907 18.8917 -17.8499
v  -10.7292 19.0688 -17.8486
v  -9.6504 19.0879 -16.7819
v  -9.1526 25.1171 -19.0117
v  -8.6132 25.1266 -18.4784
v  -9.6824 25.2151 -18.4777
v  -9.1430 25.2247 -17.9443
v  -8.6357 31.3615 -19.1068
# 21 vertices

vn -0.0373 -0.4568 0.8888
vn -0.8800 -0.4717 0.0554
vn -0.0522 -0.6250 -0.7789
vn 0.7906 -0.6100 0.0544
vn -0.0019 -0.0151 -0.9999
vn 1.0000 0.0027 -0.0092
vn -0.9859 0.1671 -0.0080
vn 0.0159 0.1848 0.9826
vn 0.9966 -0.0825 -0.0006
# 9 vertex normals

vt 0.5000 0.0000 1.0000
vt 0.2500 0.0000 1.0000
vt 0.0000 0.0000 1.0000
vt -0.2500 0.0000 1.0000
vt 0.0000 0.2000 0.8000
vt -0.2500 0.2000 0.8000
vt 0.2500 0.2000 0.8000
vt 0.5000 0.2000 0.8000
vt 0.7500 0.0000 1.0000
vt 0.7500 0.2000 0.8000
vt 0.0000 0.4000 0.6000
vt -0.2500 0.4000 0.6000
vt 0.2500 0.4000 0.6000
vt 0.5000 0.4000 0.6000
vt 0.7500 0.4000 0.6000
vt 0.0000 0.6000 0.4000
vt -0.2500 0.6000 0.4000
vt 0.2500 0.6000 0.4000
vt 0.5000 0.6000 0.4000
vt 0.7500 0.6000 0.4000
vt 0.0000 0.8000 0.2000
vt -0.2500 0.8000 0.2000
vt 0.2500 0.8000 0.2000
vt 0.5000 0.8000 0.2000
vt 0.7500 0.8000 0.2000
vt 0.5000 1.0000 0.0000
# 26 texture coords

o Cone019
g Cone019
usemtl Puas
s 1
f 122/141/58 123/142/59 124/143/60 125/144/61 
s 8
f 125/144/61 124/143/60 126/145/62 127/146/63 
f 124/143/60 123/142/59 128/147/64 126/145/62 
f 123/142/59 122/141/58 129/148/65 128/147/64 
f 122/141/58 125/149/61 127/150/63 129/148/65 
f 127/146/63 126/145/62 130/151/62 131/152/63 
f 126/145/62 128/147/64 132/153/64 130/151/62 
f 128/147/64 129/148/65 133/154/65 132/153/64 
f 129/148/65 127/150/63 131/155/63 133/154/65 
f 131/152/63 130/151/62 134/156/62 135/157/63 
f 130/151/62 132/153/64 136/158/64 134/156/62 
f 132/153/64 133/154/65 137/159/65 136/158/64 
f 133/154/65 131/155/63 135/160/63 137/159/65 
f 135/157/63 134/156/62 138/161/62 139/162/63 
f 134/156/62 136/158/64 140/163/64 138/161/62 
f 136/158/64 137/159/65 141/164/65 140/163/64 
f 137/159/65 135/160/63 139/165/63 141/164/65 
f 139/162/63 138/161/62 142/166/66 142/166/66 
f 138/161/62 140/163/64 142/166/66 142/166/66 
f 140/163/64 141/164/65 142/166/66 142/166/66 
f 141/164/65 139/165/63 142/166/66 142/166/66 
s 1
f 142/166/66 142/166/66 142/166/66 142/166/66 
# 22 polygons

